<svg xmlns="http://www.w3.org/2000/svg" width="70.001" height="60" viewBox="0 0 70.001 60">
  <g id="Group_1061" data-name="Group 1061" transform="translate(-1349.999 -1538)">
    <rect id="Rectangle_352" data-name="Rectangle 352" width="70" height="60" transform="translate(1350 1538)" fill="none"/>
    <path id="Path_99" data-name="Path 99" d="M13772.528,21205.91l-.017-.01a44.255,44.255,0,0,0-7.175-1.922,109.274,109.274,0,0,0-21.153-1.867,178.841,178.841,0,0,0-26.035,2.041h0a1.713,1.713,0,0,1-.174.012,1.226,1.226,0,0,1-1.205-.963l-7.736-34.629a1.23,1.23,0,0,1,.461-1.248,1.183,1.183,0,0,1,.738-.258,1.25,1.25,0,0,1,.588.148l17.155,9.336,16.531-20.475a4.633,4.633,0,0,1,3.47-2.076,3.164,3.164,0,0,1,2.49,1.3l15.9,20.867,8.815-6.443a3.112,3.112,0,0,1,2.144-1.264,1.555,1.555,0,0,1,1.206.559,2.946,2.946,0,0,1,.4,2.314l-4.722,33.615a1.247,1.247,0,0,1-1.222,1.053A1.328,1.328,0,0,1,13772.528,21205.91Zm-9.1-4.814a61.534,61.534,0,0,1,8.554,2l4.382-31.178-9.519,6.955a1.2,1.2,0,0,1-.729.236,1.226,1.226,0,0,1-.976-.484l-16.678-21.879a.706.706,0,0,0-.493-.273c-.184,0-.708.115-1.557,1.168l-17.177,21.273a1.232,1.232,0,0,1-.947.453,1.26,1.26,0,0,1-.6-.158l-15.666-8.521,6.9,30.854a180.439,180.439,0,0,1,25.259-1.9A117.282,117.282,0,0,1,13763.43,21201.1Zm5.948.168a96.223,96.223,0,0,0-24.347-3.092,75.628,75.628,0,0,0-13.979,1.125,1.372,1.372,0,0,1-.252.027,1.24,1.24,0,0,1-1.032-1.914,1.228,1.228,0,0,1,.781-.531,77.489,77.489,0,0,1,14.476-1.18,98.6,98.6,0,0,1,24.986,3.184,1.243,1.243,0,0,1,.887,1.5l-.006.006a1.238,1.238,0,0,1-1.185.92A1.02,1.02,0,0,1,13769.378,21201.264Zm-23.366-12.939a21.31,21.31,0,0,1-1.9-5.818,8,8,0,0,1-.015-3.23,1.231,1.231,0,0,1,1.205-1,1.258,1.258,0,0,1,.24.027h.006a1.245,1.245,0,0,1,.964,1.451,5.492,5.492,0,0,0,.011,2.246c.954,4.563,2.086,6.6,3.664,6.6,1.84,0,3.438-2.82,3.644-6.412.12-2.3-.383-4.184-1.426-5.281a2.977,2.977,0,0,0-2.218-.994,3.289,3.289,0,0,0-2.2,1.072,1.244,1.244,0,0,1-.864.357,1.21,1.21,0,0,1-.88-.373,1.238,1.238,0,0,1,.016-1.746,5.759,5.759,0,0,1,3.925-1.785,5.494,5.494,0,0,1,4.01,1.77c1.069,1.135,2.3,3.287,2.086,7.111a12.381,12.381,0,0,1-1.866,6.191,5.187,5.187,0,0,1-4.229,2.559A4.717,4.717,0,0,1,13746.012,21188.324Zm6.017-7.111a1.224,1.224,0,0,1-.786-.512,1.239,1.239,0,0,1-.2-.926.905.905,0,0,0-.462-.883,1.228,1.228,0,0,1-.587-.727,1.248,1.248,0,0,1,.1-.947l.006,0a1.233,1.233,0,0,1,1.667-.49,3.335,3.335,0,0,1,1.7,3.5,1.247,1.247,0,0,1-1.206,1.01A1.206,1.206,0,0,1,13752.028,21181.213Zm4.209-8.186-4.329-5.74a1.244,1.244,0,0,1-.241-.914,1.247,1.247,0,0,1,1.222-1.07,1.258,1.258,0,0,1,.985.49l4.324,5.75a1.2,1.2,0,0,1,.24.914,1.247,1.247,0,0,1-.481.816,1.232,1.232,0,0,1-.734.248A1.211,1.211,0,0,1,13756.237,21173.027Z" transform="translate(-12359 -19612)" fill="#c2cedf"/>
  </g>
</svg>
