<svg xmlns="http://www.w3.org/2000/svg" width="56" height="60" viewBox="0 0 56 60">
  <path id="Path_92" data-name="Path 92" d="M26.619,14.205a10.869,10.869,0,0,1,3.086.551c1.853.6,4.978,4.133,6.8,6.809a28.861,28.861,0,0,1,3.472,8.544,4.553,4.553,0,0,0,.752,2.174c2.213,1.928,1.849-.4,2.069-2.174,0,0-1.163-4.008-.028-6.445A9.981,9.981,0,0,1,51.928,18.2a10.549,10.549,0,0,1,7.465,2.857c2.935,2.637,5.864,9.57,4.917,13.9A27.739,27.739,0,0,1,53.5,51.389c-2.069,1.574-4.971,2.787-6.761,4.647-1.366,1.426-7.042,7.663-8.318,9.164-2.467-5.135-5.587-10.721-8.711-13.811-1.484-1.457-2.447-3.523-4.057-4.826a27.892,27.892,0,0,1-2.723-2.492,22.8,22.8,0,0,1-6.365-13.126C16.04,25,19.907,14.06,26.619,14.205Zm0-3.607a12.174,12.174,0,0,0-4.341,1.14A16.437,16.437,0,0,0,14.129,20.4a19.576,19.576,0,0,0-1.406,9.455,31.383,31.383,0,0,0,9.691,19.611A49,49,0,0,1,32.5,63.92a26.354,26.354,0,0,1,1.785,4.352c.5,1.887,3.827,3.161,5.612,1.6A35.743,35.743,0,0,0,44.536,65.2c1.078-1.276,2.407-3.52,3.535-4.655a38.492,38.492,0,0,1,7.108-5.8A30.5,30.5,0,0,0,65.312,43.016,36.1,36.1,0,0,0,67.9,36.122c2-7.51-.149-14.979-6.415-19.256s-14.028-2.733-18.715.943A24,24,0,0,0,40.682,19.7a26.971,26.971,0,0,0-6.846-7.051A11.284,11.284,0,0,0,26.619,10.6Z" transform="translate(-12.625 -10.574)" fill="#c2cedf"/>
</svg>
