<svg xmlns="http://www.w3.org/2000/svg" width="51" height="60.002" viewBox="0 0 51 60.002">
  <path id="Path_98" data-name="Path 98" d="M13722.033,21213.57c-6.767-.357-10.941-2.715-12.453-6.937-1.868-5.361,1.15-12.3,3.956-17.234a64,64,0,0,1,11.511-14.449,1.491,1.491,0,0,1,2.092.074,1.458,1.458,0,0,1-.074,2.072,62.051,62.051,0,0,0-10.936,13.734c-3.6,6.225-4.968,11.441-3.743,14.807,1.081,3,4.388,4.717,9.786,5,7.916.432,16.259.432,23.457.432,5.037,0,8.636-1.357,10.286-3.861,1.8-2.576,1.661-6.654-.432-11.658a55.11,55.11,0,0,0-13.741-19.523,1.535,1.535,0,0,1-.068-2.076,1.559,1.559,0,0,1,2.087-.07,59.021,59.021,0,0,1,14.385,20.525c2.449,6.01,2.449,10.939.149,14.373q-3.458,5.042-12.74,5.148c-1.512,0-3.307.076-5.031.076C13734.619,21214,13728.214,21213.926,13722.033,21213.57Zm11.079-8.727q-.088-.36-.511-2.668v.006c-.037-.213-.106-.531-.2-.963s-.191-.885-.3-1.354v0c-.038-.15-.1-.443-.208-.885-.016-.043-.032-.086-.048-.127,0-.027,0-.043,0-.064-.1-.4-.207-.879-.346-1.475v-.006c-.043-.186-.1-.432-.17-.74v0c-.128-.582-.229-1.055-.3-1.422q-.831-4.28-1.3-6.852v-.012c-.251-1.443-.421-2.471-.522-3.1a10.551,10.551,0,0,0-2.012,1.006l-.032.021a1.079,1.079,0,1,1-1.155-1.822,12.737,12.737,0,0,1,3.529-1.623l.038-.01a46.715,46.715,0,0,1,6.346-1.193l.091-.006q4.137-.208,6.266,2.344l.054.063q2.827,3.97-.2,7.023-1.8,2.027-9.056,3.375c.026.133.048.244.074.373.064.352.16.809.288,1.367v0c.063.3.122.547.159.723.059.252.112.459.16.678l.5-.059a.005.005,0,0,0,0,0,.008.008,0,0,1,.007,0h0l.03-.006c.266-.037.506-.08.724-.123h.017c.059-.016.181-.043.361-.084l1.315-.33c.314-.08.74-.187,1.294-.314H13738l.857-.213a1.079,1.079,0,1,1,.527,2.092c-.416.1-.7.176-.873.219h-.006c-.521.121-.947.229-1.272.309h.006l-1.32.33-.011.006c-.213.047-.362.084-.458.1-.24.049-.5.094-.787.135-.028.006-.057.012-.086.016h-.006c-.048,0-.154.021-.319.037.091.393.176.781.256,1.16l0,.006c.091.441.16.777.2,1.012v0c.277,1.5.438,2.338.485,2.541a1.081,1.081,0,0,1-.788,1.309,1.031,1.031,0,0,1-.253.031A1.087,1.087,0,0,1,13733.112,21204.844Zm1.111-7.4h0Zm1.924-13.734q-2.788.36-4.846.836c.075.5.262,1.607.56,3.359.218,1.178.489,2.637.819,4.34q6.557-1.222,7.858-2.7l.048-.053q1.758-1.767.027-4.234a4.967,4.967,0,0,0-4-1.561C13736.46,21183.7,13736.3,21183.7,13736.147,21183.707Zm-1.88,13.727h0Zm-8.22-13.07-.032.02Zm-1.14-10.34h0Zm-1.368-.932a1.425,1.425,0,0,1,.431-1.645,3.91,3.91,0,0,1,2.375-.789,1.866,1.866,0,0,0,.575-.068,1.188,1.188,0,0,1,1.08.355c.863-.074,1.726-.074,2.588-.143,3.961-.213,8.061-.426,12.16-.426h2.161a1.429,1.429,0,1,1,0,2.857c-4.749,0-9.572.219-14.247.5-1.725.143-3.742.213-5.755.287A1.482,1.482,0,0,1,13723.54,21173.092Zm14.316-3.434a1.468,1.468,0,0,1,.148-2.072c1.794-1.576,4.818-5.941,4.893-7.293v-.932a20.064,20.064,0,0,0-3.529,2.576c-.506.426-.937.783-1.225,1.07a1.412,1.412,0,0,1-1.8,0,1.524,1.524,0,0,1-.5-1.715,10.109,10.109,0,0,0,.575-2.437,5.608,5.608,0,0,1-.5.861,13.241,13.241,0,0,1-1.943,2.791,1.389,1.389,0,0,1-1.373.361,1.451,1.451,0,0,1-1.007-1.006c-.207-.783-1.362-4.223-3.381-4.867-.144,2.295.725,5.01,1.443,7.514.356,1.074.644,2.15.862,3.076a1.481,1.481,0,0,1-2.875.715c-.218-.857-.506-1.859-.868-2.93-1.011-3.289-2.156-7.012-1.293-10.232a1.369,1.369,0,0,1,1.149-1.07c2.662-.426,5.111,1.145,6.692,4.361v-.07c.938-1.57,2.013-3.578,4.243-4a1.515,1.515,0,0,1,1.225.289,1.349,1.349,0,0,1,.575,1.068v2.359c1.655-1.283,3.381-2.215,4.823-1.5,1.726.789,1.581,3.078,1.581,3.791-.144,2.865-4.174,7.939-5.829,9.371a1.412,1.412,0,0,1-1.007.426A1.289,1.289,0,0,1,13737.856,21169.658Z" transform="translate(-13709.002 -21154)" fill="#c2cedf"/>
</svg>
