<svg xmlns="http://www.w3.org/2000/svg" width="69.999" height="60" viewBox="0 0 69.999 60">
  <path id="Path_100" data-name="Path 100" d="M13754.686,21214c-2.023-.037-32.032-.578-39.453-.715a2.408,2.408,0,0,1-2.359-2.354c-.457-6.223-.917-12.518-.856-18.764.035-3,.076-6.01.2-9.01.072-1.912.413-5.826.7-7.73-.412.01-.821.018-1.232.031-1.782.047-2.675.637-2.679-.768a2.557,2.557,0,0,1,2.679-2.764c.948.037,1.892.068,2.84.1,4.536-3.086,8.492-7,12.882-10.328,3.925-2.98,7.971-6.713,13.058-7.33a84.453,84.453,0,0,1,12.359-.271c1.82.049,3.63.094,5.416.094q9.189-.006,18.383-.023a2.39,2.39,0,0,1,2.355,2.352q-.035,7.963-.064,15.926c-.023,5.137.292,10.4-.127,15.518-.4,4.818-3.3,7.891-6.223,11.492-3.29,4.057-10.619,14.656-13.349,14.451a20.776,20.776,0,0,0-2.58.033c-.595.033-1.183.064-1.745.064Zm-39.535-38.637c.251,1.938.009,13.8.228,16.8.4,5.477.664,12.959,1.052,18.439,12.59.17,27.174.342,39.763.51.261,0,.533,0,.808-.014a11.228,11.228,0,0,1,1.308.01s.31-6.141.433-7.811c.237-3.158.41-6.32.578-9.488.315-5.869.629-12.736.948-18.605C13745.563,21175.564,13729.855,21174.969,13715.15,21175.363Zm53.725-7.154a47.336,47.336,0,0,1-4.859,4.76l-1.28,23.34c-.149,2.637-.259,7.268-.36,9.9,1.815-2.236,3.748-4.4,5.542-6.6,1.465-1.8,5.022-5.562,6.409-7.432,1.463-1.979,1.728-5.973,1.763-8.367.105-7.506.119-16.014.146-23.523C13774.475,21162.291,13770.7,21166.277,13768.875,21168.209Zm-25.687-11.512c-5.1.217-10.821,6.359-14.981,9.021-3.564,2.287-6.325,4.2-9.927,6.377,5.323.119,9.666.113,15,.051,5.255-4.838,11.9-11.246,17.54-15.621C13748.271,21156.543,13745.729,21156.594,13743.188,21156.7Zm13.7,1.021c-6.062,4.232-14.1,10.541-20.428,14.383,8.2-.137,16.4-.393,24.559-.561,1.313-1.854,2.971-3.576,4.367-5.227,2.078-2.469,6.1-6.982,8.1-9.514-5.227-.076-10.47-.217-15.707-.268A2.174,2.174,0,0,1,13756.891,21157.719Zm-26.98,28.572c-1.154-.064-2.648.127-3.527-.754a1.24,1.24,0,0,1,.2-1.9,13.585,13.585,0,0,1,1.309-.449,19.857,19.857,0,0,1,2.02-.082q3.2-.149,6.395-.322c2.164-.117,4.334-.186,6.494-.3.748-.039,2.607-.2,2.789-.176a2.178,2.178,0,0,1,2.221,2.139c.22,2.025-2.556,1.482-5.349,1.482C13740.286,21185.936,13732.376,21186.418,13729.91,21186.291Z" transform="translate(-13708.999 -21154)" fill="#c2cedf"/>
</svg>
