<svg xmlns="http://www.w3.org/2000/svg" width="80" height="17" viewBox="0 0 80 17">
  <path id="Path_24" data-name="Path 24" d="M-5520.814,1065.216a4.519,4.519,0,0,1-1.758-1.38.722.722,0,0,1-.187-.471.709.709,0,0,1,.355-.606.8.8,0,0,1,.473-.15.857.857,0,0,1,.693.354,2.845,2.845,0,0,0,1.149.892,3.589,3.589,0,0,0,1.572.3,3.123,3.123,0,0,0,1.5-.387,2.763,2.763,0,0,0,1.082-1.161,3.827,3.827,0,0,0,.406-1.835v-.826a3.931,3.931,0,0,1-1.386,1.448,3.627,3.627,0,0,1-1.944.522,4.358,4.358,0,0,1-2.248-.589,4.13,4.13,0,0,1-1.538-1.649,5.367,5.367,0,0,1-.558-2.407,4.846,4.846,0,0,1,.591-2.424,4.209,4.209,0,0,1,1.657-1.65,4.844,4.844,0,0,1,2.417-.589,4.722,4.722,0,0,1,2.384.589,3.013,3.013,0,0,1,.608.421l-.017-.993h1.656v8.3a4.846,4.846,0,0,1-.591,2.424,4.467,4.467,0,0,1-1.673,1.734,4.911,4.911,0,0,1-2.434.638,6.129,6.129,0,0,1-2.214-.5Zm2.3-11.11a3.039,3.039,0,0,0-1.538.4,2.9,2.9,0,0,0-1.082,1.127,3.248,3.248,0,0,0-.389,1.633,3.144,3.144,0,0,0,.389,1.615,2.9,2.9,0,0,0,1.082,1.127,3.087,3.087,0,0,0,1.538.4,3.043,3.043,0,0,0,1.539-.4,2.741,2.741,0,0,0,1.065-1.126,3.6,3.6,0,0,0,.389-1.615,3.228,3.228,0,0,0-.389-1.633,2.741,2.741,0,0,0-1.065-1.126,2.943,2.943,0,0,0-1.456-.405c-.029,0-.056,0-.083,0Zm40.871,7.354a3.422,3.422,0,0,1-1.454-1.481,4.826,4.826,0,0,1-.524-2.323v-5h1.725v5a2.742,2.742,0,0,0,.743,2.071,2.7,2.7,0,0,0,1.943.69,2.926,2.926,0,0,0,1.3-.286,2.253,2.253,0,0,0,.914-.774,1.944,1.944,0,0,0,.339-1.094v-5.605h.845v-.017h.862v8.366a.852.852,0,0,1-.237.606.869.869,0,0,1-.625.253.8.8,0,0,1-.608-.253.854.854,0,0,1-.253-.606v-.185a4.041,4.041,0,0,1-1.285.841,4.3,4.3,0,0,1-1.589.3h-.091a4.347,4.347,0,0,1-2.008-.5Zm-9.094.471a4.692,4.692,0,0,1-2.417-.606,4.319,4.319,0,0,1-1.656-1.65,4.8,4.8,0,0,1-.591-2.407,4.865,4.865,0,0,1,.591-2.424,4.213,4.213,0,0,1,1.657-1.65,4.846,4.846,0,0,1,2.417-.589,4.828,4.828,0,0,1,2.4.589,4.324,4.324,0,0,1,1.656,1.65,4.861,4.861,0,0,1,.592,2.424,4.8,4.8,0,0,1-.592,2.407,4.208,4.208,0,0,1-1.656,1.65,4.581,4.581,0,0,1-2.3.607Zm-1.538-7.423a2.9,2.9,0,0,0-1.083,1.126,3.243,3.243,0,0,0-.388,1.633,3.144,3.144,0,0,0,.389,1.615,2.9,2.9,0,0,0,1.083,1.126,2.883,2.883,0,0,0,1.538.4,3.154,3.154,0,0,0,1.555-.4,2.74,2.74,0,0,0,1.065-1.126,3.611,3.611,0,0,0,.389-1.615,3.237,3.237,0,0,0-.388-1.633,2.744,2.744,0,0,0-1.065-1.127,2.942,2.942,0,0,0-1.556-.4h-.082a2.892,2.892,0,0,0-1.458.405Zm-41.732,7.423a4.693,4.693,0,0,1-2.417-.606,4.327,4.327,0,0,1-1.657-1.65,4.792,4.792,0,0,1-.591-2.407,4.861,4.861,0,0,1,.591-2.424,4.213,4.213,0,0,1,1.657-1.65,4.847,4.847,0,0,1,2.417-.589,4.826,4.826,0,0,1,2.4.589,4.318,4.318,0,0,1,1.657,1.65,4.851,4.851,0,0,1,.591,2.424,4.787,4.787,0,0,1-.591,2.407,4.207,4.207,0,0,1-1.656,1.65,4.578,4.578,0,0,1-2.3.607Zm-1.538-7.423a2.9,2.9,0,0,0-1.082,1.127,3.238,3.238,0,0,0-.389,1.633,3.144,3.144,0,0,0,.389,1.615,2.9,2.9,0,0,0,1.082,1.126,2.887,2.887,0,0,0,1.539.4,3.152,3.152,0,0,0,1.555-.4,2.741,2.741,0,0,0,1.065-1.126,3.612,3.612,0,0,0,.389-1.615,3.238,3.238,0,0,0-.389-1.633,2.742,2.742,0,0,0-1.065-1.127,2.939,2.939,0,0,0-1.555-.4h-.082a2.9,2.9,0,0,0-1.456.405Zm65.394,6.82a4.332,4.332,0,0,1-1.673-1.683,4.685,4.685,0,0,1-.608-2.374,4.946,4.946,0,0,1,.574-2.39,4.39,4.39,0,0,1,1.555-1.683,4.042,4.042,0,0,1,2.2-.606,4.308,4.308,0,0,1,1.825.4,4.264,4.264,0,0,1,1.437,1.126v-5.4h1.724v12.287a.865.865,0,0,1-.862.858.865.865,0,0,1-.862-.858v-.084a4.22,4.22,0,0,1-.575.387,4.63,4.63,0,0,1-2.349.622h-.09a4.65,4.65,0,0,1-2.292-.6Zm.846-6.8a2.9,2.9,0,0,0-1.082,1.126,3.315,3.315,0,0,0-.405,1.6,3.366,3.366,0,0,0,.405,1.615,2.894,2.894,0,0,0,1.082,1.126,3.06,3.06,0,0,0,1.538.421,2.94,2.94,0,0,0,1.538-.421,2.849,2.849,0,0,0,1.065-1.126,3.4,3.4,0,0,0,.389-1.615,3.112,3.112,0,0,0-.389-1.6,2.9,2.9,0,0,0-1.082-1.126,3.056,3.056,0,0,0-1.538-.421,2.837,2.837,0,0,0-1.522.421Zm-39.045,6.8a4.333,4.333,0,0,1-1.673-1.683,4.666,4.666,0,0,1-.591-2.374,5.076,5.076,0,0,1,.575-2.424,4.278,4.278,0,0,1,1.621-1.667,4.658,4.658,0,0,1,2.366-.589,4.225,4.225,0,0,1,3.313,1.515.6.6,0,0,1,.169.438.752.752,0,0,1-.372.623.661.661,0,0,1-.389.118.845.845,0,0,1-.66-.3,2.591,2.591,0,0,0-.929-.656,2.909,2.909,0,0,0-1.149-.219,2.763,2.763,0,0,0-2.112.858,3.229,3.229,0,0,0-.811,2.306,3.134,3.134,0,0,0,.389,1.615,2.742,2.742,0,0,0,1.065,1.126,3,3,0,0,0,1.572.4,2.854,2.854,0,0,0,1.858-.589,1.024,1.024,0,0,1,.626-.235.7.7,0,0,1,.439.15.735.735,0,0,1,.321.606.6.6,0,0,1-.2.454,4.212,4.212,0,0,1-3.025,1.126h-.091a4.765,4.765,0,0,1-2.312-.6Zm10.6.555h-.05v-.017a2.414,2.414,0,0,1-1.32-.387,2.5,2.5,0,0,1-.9-1.111,3.764,3.764,0,0,1-.321-1.6v-10.032h1.69v10.032a2,2,0,0,0,.236,1.027.7.7,0,0,0,.609.4h.422a.8.8,0,0,1,.558.236.9.9,0,0,1,.22.606.734.734,0,0,1-.321.606,1.323,1.323,0,0,1-.754.238c-.022,0-.049,0-.072,0Zm-42.779,0h-.034v-.017a2.413,2.413,0,0,1-1.319-.387,2.662,2.662,0,0,1-.913-1.111,3.763,3.763,0,0,1-.32-1.6v-10.032h1.69v10.032a2.005,2.005,0,0,0,.236,1.027.7.7,0,0,0,.609.4h.423a.8.8,0,0,1,.558.236.892.892,0,0,1,.22.606.734.734,0,0,1-.321.606,1.322,1.322,0,0,1-.754.238c-.025,0-.047,0-.074,0Zm26.351-.017a.8.8,0,0,1-.608-.253.85.85,0,0,1-.253-.606v-8.349h1.723v8.349a.846.846,0,0,1-.236.606.819.819,0,0,1-.575.254.181.181,0,0,1-.05,0Zm-.777-11.042a1.064,1.064,0,0,1-.339-.791,1.029,1.029,0,0,1,.339-.774,1.062,1.062,0,0,1,.778-.338,1.038,1.038,0,0,1,.778.338,1.058,1.058,0,0,1,.339.774,1.1,1.1,0,0,1-.339.791,1.039,1.039,0,0,1-.778.338,1.038,1.038,0,0,1-.776-.337Z" transform="translate(5539.121 -1048.721)" fill="#7492be"/>
</svg>
