<svg xmlns="http://www.w3.org/2000/svg" width="240.604" height="60" viewBox="0 0 240.604 60">
  <path id="Path_91" data-name="Path 91" d="M-22052.479-4890.007h-8.01l.141-.363,6.047-14.787-13.234-30.05-.156-.362h8.975l.08.157,8.66,21.011,7.979-21.011.064-.157h8.135l-.141.362-18.287,45.026-.061.173Zm-212-9.451v-.286c0-5.619,3.8-9.576,9.229-9.576v.017a8.429,8.429,0,0,1,1.662.092,8.731,8.731,0,0,1,1.617.412,9.151,9.151,0,0,1,1.5.714,8.888,8.888,0,0,1,1.33.964c1.775,1.662,2.662,4.069,2.662,7.188v1.3h-13.475c.16,3.42,1.932,5.3,5.006,5.3q3.677,0,4.146-2.755v-.064h4.26v.1c-.6,3.832-3.7,6.046-8.535,6.046C-22260.691-4890.007-22264.475-4893.791-22264.475-4899.458Zm4.592-2.186h9.037c-.219-2.945-1.707-4.433-4.4-4.433C-22257.715-4906.077-22259.439-4904.431-22259.883-4901.644Zm15.293,5.574v-.081h4.271v.064c.336,1.819,1.727,2.755,4.164,2.755,3.055,0,4.83-1.883,5.006-5.32h-13.488v-1.3c0-3.118.885-5.525,2.641-7.171a9.605,9.605,0,0,1,1.348-.98,9.039,9.039,0,0,1,1.5-.714,8.711,8.711,0,0,1,1.615-.412,8.455,8.455,0,0,1,1.66-.093l-.016-.016c5.434,0,9.232,3.925,9.232,9.592v.286c0,5.635-3.783,9.435-9.406,9.435C-22240.887-4890.023-22244.021-4892.222-22244.59-4896.07Zm4.318-5.574h9.041c-.443-2.788-2.17-4.433-4.639-4.433C-22238.574-4906.077-22240.049-4904.588-22240.271-4901.644Zm38.393-16.542v-.508c0-10.354,6.965-17.586,16.941-17.586a16.077,16.077,0,0,1,11.236,4.034c3.232,3.042,4.861,7.474,4.861,13.173v2.5h-24.553c.33,6.079,3.514,9.418,8.959,9.418,4.367,0,6.889-1.662,7.457-4.921l.033-.206h8.027l-.033.3c-1.092,7.063-6.809,11.132-15.674,11.132C-22194.945-4900.85-22201.879-4907.815-22201.879-4918.186Zm8.66-4.086h16.162c-.443-5.191-3.086-7.821-7.881-7.821C-22189.389-4930.092-22192.4-4927.24-22193.219-4922.271Zm58.021,10.068v-.266h7.854v.234c.412,3.61,2.324,5.146,6.41,5.146,3.943,0,5.779-1.282,5.779-4.038,0-2.4-1.709-3.464-6.98-4.352-9.105-1.456-12.352-4.194-12.352-10.463a10.073,10.073,0,0,1,.252-2.267,9.556,9.556,0,0,1,.8-2.138,9.211,9.211,0,0,1,1.295-1.884,9.663,9.663,0,0,1,1.711-1.488,14.658,14.658,0,0,1,2.027-1.138,16.3,16.3,0,0,1,2.166-.823,16.23,16.23,0,0,1,2.283-.476,13.974,13.974,0,0,1,2.324-.125c8.139,0,12.65,3.5,13.41,10.367l.031.286h-7.7l-.047-.205c-.619-3.009-2.312-4.292-5.7-4.292-3.135,0-5.08,1.472-5.08,3.723s1.518,3.167,6.713,4.05l-.016-.028c8.1,1.25,12.807,3.372,12.807,10.527,0,6.966-4.908,10.972-13.68,10.972S-22134.881-4904.984-22135.2-4912.2Zm-30.824,0v-.266h7.854v.234c.412,3.61,2.328,5.146,6.414,5.146,3.941,0,5.76-1.282,5.76-4.038,0-2.4-1.693-3.464-6.965-4.352-9.117-1.456-12.348-4.194-12.348-10.463a8.886,8.886,0,0,1,.254-2.267,9.262,9.262,0,0,1,.791-2.138,9.072,9.072,0,0,1,1.281-1.884,9.575,9.575,0,0,1,1.729-1.488,14.615,14.615,0,0,1,2.023-1.138,15.408,15.408,0,0,1,2.172-.823,16.006,16.006,0,0,1,2.279-.476,13.855,13.855,0,0,1,2.309-.125c8.152,0,12.666,3.5,13.424,10.367l.033.286h-7.7l-.045-.205c-.617-3.009-2.311-4.292-5.715-4.292-3.117,0-5.064,1.472-5.064,3.723s1.5,3.167,6.711,4.05l-.018-.028c8.109,1.25,12.813,3.372,12.813,10.527,0,6.966-4.908,10.972-13.682,10.972S-22165.687-4904.984-22166.021-4912.2Zm90.254,11.29c-6.711,0-10.4-3.594-10.4-10.18v-18.11h-4.336v-6.365h4.336v-7.362h8.281v7.362h7.361v6.365h-7.361v17.384c0,2.674,1.2,4.033,3.6,4.033a7.914,7.914,0,0,0,.93-.016,8.868,8.868,0,0,0,.936-.108c.309-.053.613-.122.92-.206a7.754,7.754,0,0,0,.885-.3l.367-.142v6.744l-.176.064c-.422.146-.855.274-1.3.379s-.887.209-1.33.287c-.453.06-.906.108-1.359.141-.342.025-.684.035-1.027.035Zm-18.934-.584h-8.025v-34.071h8.293v34.071Zm-139.945-14.392v-.081h4.271v.065c.316,1.819,1.711,2.755,4.148,2.755,3.072,0,4.828-1.884,5-5.32h-13.488v-1.3c0-3.118.887-5.521,2.658-7.172a8.878,8.878,0,0,1,1.33-.98,9.132,9.132,0,0,1,1.506-.714,8.575,8.575,0,0,1,1.613-.412,8.778,8.778,0,0,1,1.662-.092v.016c5.428,0,9.227,3.924,9.227,9.576v.286c0,5.651-3.781,9.451-9.4,9.451C-22230.943-4909.812-22234.049-4912.042-22234.646-4915.891Zm4.3-5.574h9.039c-.443-2.771-2.166-4.433-4.637-4.433C-22228.633-4925.9-22230.121-4924.409-22230.344-4921.465Zm-44.059,2.187v-.27c0-5.619,3.8-9.592,9.229-9.592a8.771,8.771,0,0,1,1.664.092,11.344,11.344,0,0,1,1.617.412,8.747,8.747,0,0,1,1.488.714,8.6,8.6,0,0,1,1.342.98c1.76,1.65,2.664,4.07,2.664,7.172v1.3h-13.488c.172,3.437,1.947,5.32,5,5.32,2.453,0,3.832-.936,4.162-2.755v-.065h4.244v.081l.016.033c-.6,3.832-3.7,6.046-8.531,6.046C-22270.617-4909.812-22274.4-4913.627-22274.4-4919.278Zm4.148-2.187h9.027c-.223-2.928-1.7-4.433-4.4-4.433C-22268.1-4925.9-22269.824-4924.236-22270.254-4921.465Zm15.721,2.187v-.27c0-5.619,3.785-9.592,9.229-9.592a8.659,8.659,0,0,1,1.646.092,11.212,11.212,0,0,1,1.617.412,8.4,8.4,0,0,1,1.5.714,9.663,9.663,0,0,1,1.346.98c1.758,1.65,2.646,4.07,2.646,7.172v1.315h-13.475c.16,3.437,1.932,5.32,5,5.32,2.453,0,3.828-.936,4.148-2.755v-.064h4.273v.081c-.6,3.832-3.705,6.047-8.533,6.047C-22250.748-4909.828-22254.533-4913.611-22254.533-4919.278Zm4.576-2.187h9.039c-.223-2.944-1.7-4.433-4.4-4.433C-22247.789-4925.9-22249.516-4924.252-22249.957-4921.465Zm-14.518-17.38v-.271c0-5.618,3.8-9.591,9.229-9.591a8.5,8.5,0,0,1,1.662.093,11.149,11.149,0,0,1,1.617.412,9.111,9.111,0,0,1,1.5.714,8.251,8.251,0,0,1,1.33.98c1.775,1.646,2.662,4.07,2.662,7.172v1.3h-13.475c.16,3.437,1.932,5.32,5.006,5.32,2.451,0,3.832-.936,4.146-2.755v-.064h4.26v.081c-.6,3.844-3.7,6.046-8.535,6.046l.018.016C-22260.691-4929.395-22264.475-4933.178-22264.475-4938.845Zm4.605-2.186,9.023-.016c-.219-2.944-1.707-4.433-4.4-4.433C-22257.715-4945.48-22259.439-4943.8-22259.869-4941.031Zm15.279,5.574v-.081h4.271v.064c.336,1.819,1.727,2.755,4.164,2.755v-.016c3.055,0,4.83-1.883,5.006-5.32h-13.506v-1.3c0-3.1.9-5.51,2.658-7.172a8.6,8.6,0,0,1,1.332-.98,8.347,8.347,0,0,1,1.5-.7,8.653,8.653,0,0,1,1.613-.412,8.521,8.521,0,0,1,1.662-.093c5.434,0,9.232,3.909,9.232,9.576v.286c0,5.651-3.783,9.435-9.406,9.435C-22240.887-4929.411-22244.021-4931.613-22244.59-4935.457Zm4.318-5.574h9.041c-.443-2.771-2.17-4.433-4.639-4.433C-22238.574-4945.464-22240.049-4943.976-22240.271-4941.031Zm138.258-.98a4.918,4.918,0,0,1-1.535-3.247,4.575,4.575,0,0,1,.379-1.835,4.581,4.581,0,0,1,1.061-1.569,4.346,4.346,0,0,1,1.582-1.013,4.623,4.623,0,0,1,1.854-.331,4.6,4.6,0,0,1,1.852.331,4.937,4.937,0,0,1,1.582,1.028,4.94,4.94,0,0,1,1.061,1.553,5.226,5.226,0,0,1,.385,1.835,5.014,5.014,0,0,1-1.555,3.247,4.889,4.889,0,0,1-3.324,1.315A4.9,4.9,0,0,1-22102.014-4942.012Z" transform="translate(22274.402 4950.007)" fill="#7492be"/>
</svg>
