<svg xmlns="http://www.w3.org/2000/svg" width="141" height="60" viewBox="0 0 141 60">
  <path id="Path_90" data-name="Path 90" d="M-21656.887-4917.695c0-6.356,3.678-12.6,11.689-16.47l-.084-.164c-4.734-5.144-6.535-9.421-6.535-13.667,0-7.876,5.561-14.195,16.838-14.195h.037c9.814,0,15.414,4.938,15.414,11.134,0,4.362-2.664,7.469-8.867,10.853l.162.318a29.839,29.839,0,0,1,9.848-1.994c6.535,0,10.705,4.2,10.705,10.446,0,4.97-2.527,10.722-6.945,15.987l10.459,11.532v.412H-21617l-4.949-5.345c-6.039,4.287-12.748,6.655-18.508,6.655C-21650.426-4902.189-21656.887-4909.247-21656.887-4917.695Zm9.035-3.669c0,6.772,4.818,13.175,12.666,13.175a22.2,22.2,0,0,0,10.834-3.342l-18.518-20.275A12.806,12.806,0,0,0-21647.852-4921.364Zm14.627-14.6,16.064,17.705a16,16,0,0,0,2.607-8.775c0-6.646-4.08-10.479-10.707-10.479A21.724,21.724,0,0,0-21633.225-4935.966Zm-9.729-14.434c0,2.569.857,4.689,4.006,8.115l3.514,3.96c5.643-2.532,7.934-6.974,7.934-11.626,0-5.1-2.951-7.876-7.686-7.876S-21642.953-4955.132-21642.953-4950.4Zm42.793,29.2v-3.552l10.178-2.518v7.863c0,7.469,2.617,11.789,8.834,11.789s8.859-4.076,8.859-10.97v-42.379h10.141v39.768c0,10.727-5.312,18.926-19,18.926C-21594.8-4902.274-21600.16-4910.473-21600.16-4921.2Zm-102.988,0v-3.505l10.135-2.565v7.863c0,7.465,2.658,11.827,8.863,11.827s8.834-4.076,8.834-10.97v-42.37h10.178v39.721c0,10.727-5.359,18.926-19.012,18.926C-21697.84-4902.274-21703.148-4910.473-21703.148-4921.2Z" transform="translate(21703.148 4962.189)" fill="#7492be"/>
</svg>
