<svg xmlns="http://www.w3.org/2000/svg" width="181.362" height="120" viewBox="0 0 181.362 120">
  <g id="Group_1042" data-name="Group 1042" transform="translate(-4.7 -1.6)">
    <path id="Path_86" data-name="Path 86" d="M191.353,70.625v32.632h9.38v6.433h-9.38v35.131h10.72v6.433H182.24V64.193h19.238v6.432H191.353Zm13.39,11.529h0V76.567c0-3.377.408-7.79,2.831-10.365,2.408-2.557,6.511-3.05,9.839-3.05s7.431.493,9.839,3.05c2.423,2.574,2.831,6.987,2.831,10.365V81.83A7.175,7.175,0,0,1,222.922,89h-1.95V75.524c0-1.563-.087-4.566-.93-5.883a2.893,2.893,0,0,0-2.627-1.1,3.215,3.215,0,0,0-2.627,1.1c-.784,1.353-.93,4.32-.93,5.883v7.008c0,2.877,1.6,7.987,2.385,9.722,0,0,6.74,13.706,8.779,18.371,5.063,11.572,5.063,15.347,5.063,20.291v7.966c0,3.377-.408,7.79-2.831,10.365-2.408,2.557-6.511,3.05-9.839,3.05s-7.431-.493-9.839-3.05c-2.423-2.574-2.831-6.987-2.831-10.365v-7.945a7.174,7.174,0,0,1,7.163-7.163h1.95v16.15c0,1.518.13,4.557.9,5.638a3.137,3.137,0,0,0,2.807,1.346,2.942,2.942,0,0,0,2.655-1.1c.843-1.317.754-4.32.754-5.883v-10.03c0-4.681-1.58-9.525-4.319-15.515-2.319-5.075-6.316-13.872-8.344-18.922-1.71-4.26-3.564-7.811-3.564-13.3Zm36.35-11.529h-8.339V64.193h25.789v6.432h-8.339v80.63h-9.112Zm36.348,39.066h-7.116v41.564h-9.112V76.565c0-3.375.408-7.789,2.831-10.363,2.408-2.557,6.511-3.052,9.839-3.052s7.431.5,9.839,3.052c2.423,2.574,2.831,6.987,2.831,10.363v74.69h-9.113V109.691ZM312.41,106h0a7.311,7.311,0,0,1,2.179,1.95c1.922,2.614,2.181,7.055,2.181,10.21v33.093h-9.112V115.778c0-1.5-.119-4.457-1.106-5.642-.856-1.026-2.693-1.191-3.942-1.191h-2.068v42.309h-9.113V64.193H303.5c3.317,0,7.756.378,10.289,2.756,2.6,2.446,2.977,7.138,2.977,10.51V94.042c0,3.092-.244,7.583-2.211,10.1A7.7,7.7,0,0,1,312.41,106Zm-42.084-2.744h7.116V75.524c0-1.563-.087-4.566-.93-5.883a3.692,3.692,0,0,0-5.254,0c-.843,1.317-.932,4.32-.932,5.883Zm30.217,0h2.217c1.257,0,2.929-.187,3.772-1.24,1-1.247,1.126-4.039,1.126-5.594V76.418c0-1.506-.119-4.457-1.106-5.642-.856-1.026-2.7-1.193-3.942-1.193h-2.068Z" transform="translate(-143.985 -49.917)" fill="#7492be" fill-rule="evenodd"/>
    <path id="Path_87" data-name="Path 87" d="M67.429,579.4H63.738v2.939h3.689V584H63.738v4.521H61.95v-10.8h5.776V579.4Zm6.734,9.3h0a5.408,5.408,0,0,1-2.068-.382,4.5,4.5,0,0,1-1.629-1.149,5.022,5.022,0,0,1-1.039-1.748,6.529,6.529,0,0,1-.346-2.173,7.175,7.175,0,0,1,.35-2.31,5.125,5.125,0,0,1,1.06-1.82,4.554,4.554,0,0,1,1.682-1.176,5.731,5.731,0,0,1,2.162-.389,5.189,5.189,0,0,1,2.022.38,4.485,4.485,0,0,1,1.6,1.142,5.029,5.029,0,0,1,1.03,1.748A6.6,6.6,0,0,1,79.33,583a7.335,7.335,0,0,1-.348,2.33,5.048,5.048,0,0,1-1.055,1.82,4.531,4.531,0,0,1-1.656,1.162A5.49,5.49,0,0,1,74.163,588.7Zm.085-9.471h0a3.263,3.263,0,0,0-1.336.265,2.974,2.974,0,0,0-1.051.792,3.651,3.651,0,0,0-.7,1.244,5.141,5.141,0,0,0-.236,1.61,5.249,5.249,0,0,0,.231,1.614,3.616,3.616,0,0,0,.679,1.234,2.917,2.917,0,0,0,1.024.782,3.142,3.142,0,0,0,1.3.263,3.62,3.62,0,0,0,1.389-.251,2.791,2.791,0,0,0,1.039-.745,3.273,3.273,0,0,0,.665-1.208,5.574,5.574,0,0,0,.227-1.667,5.963,5.963,0,0,0-.221-1.707,3.357,3.357,0,0,0-.646-1.229,2.714,2.714,0,0,0-1.009-.747A3.471,3.471,0,0,0,74.248,579.226Zm14.8,9.3H87.453l-1.8-3.007-.223-.353-.21-.3-.2-.229-.2-.176-.2-.128-.2-.081-.24-.053-.278-.017h-.686v4.341H81.428v-10.8h3.343a4.589,4.589,0,0,1,1.319.181,3.156,3.156,0,0,1,.578.231,2.911,2.911,0,0,1,.508.333,2.637,2.637,0,0,1,.416.431,2.782,2.782,0,0,1,.514,1.143,3.556,3.556,0,0,1,.064.7,3.2,3.2,0,0,1-.178,1.077,3.043,3.043,0,0,1-.215.471,2.8,2.8,0,0,1-.291.414,2.975,2.975,0,0,1-.363.361,3.217,3.217,0,0,1-.425.3,3.836,3.836,0,0,1-.421.212l.168.149.2.21.181.225c.971,1.4,1.852,2.922,2.754,4.368ZM83.216,579.4h0v3.111h1.327a2.436,2.436,0,0,0,.384-.028,1.985,1.985,0,0,0,.346-.091,1.52,1.52,0,0,0,.306-.138,1.5,1.5,0,0,0,.251-.187,1.39,1.39,0,0,0,.206-.233,1.473,1.473,0,0,0,.157-.285,1.455,1.455,0,0,0,.1-.327,2.015,2.015,0,0,0,.034-.38,1.619,1.619,0,0,0-.11-.618,1.136,1.136,0,0,0-.316-.435,1.45,1.45,0,0,0-.541-.287,2.827,2.827,0,0,0-.8-.1H83.216Zm12.075,8.834h0V577.722h3.2a4.367,4.367,0,0,1,1.274.176,2.915,2.915,0,0,1,1.017.541,2.456,2.456,0,0,1,.661.85,2.546,2.546,0,0,1,.223,1.066,2.956,2.956,0,0,1-.134.9,2.605,2.605,0,0,1-.395.786,2.662,2.662,0,0,1-.627.616l-.07.045.215.091a2.7,2.7,0,0,1,.813.59,2.436,2.436,0,0,1,.529.86,3.1,3.1,0,0,1,.174,1.057,3.18,3.18,0,0,1-.261,1.3,2.93,2.93,0,0,1-.782,1.041,3.442,3.442,0,0,1-1.162.665,4.325,4.325,0,0,1-1.4.219h-3.27Zm1.788-8.834h0V582.1h.928a2.064,2.064,0,0,0,1.357-.4,1.2,1.2,0,0,0,.336-.457,1.653,1.653,0,0,0,.117-.652,1.038,1.038,0,0,0-.369-.881,2.165,2.165,0,0,0-1.293-.312Zm0,4.373h0v3.083h1.327a2.9,2.9,0,0,0,.849-.112,1.637,1.637,0,0,0,.593-.316,1.3,1.3,0,0,0,.355-.482,1.7,1.7,0,0,0,.121-.661q0-1.514-2.168-1.512H97.079Zm11.663,4.927h0a5.394,5.394,0,0,1-2.068-.382,4.488,4.488,0,0,1-1.629-1.149A5.026,5.026,0,0,1,104,585.418a6.53,6.53,0,0,1-.344-2.173,7.175,7.175,0,0,1,.35-2.31,5.125,5.125,0,0,1,1.06-1.82,4.547,4.547,0,0,1,1.68-1.176,5.747,5.747,0,0,1,2.164-.389,5.174,5.174,0,0,1,2.02.38,4.491,4.491,0,0,1,1.6,1.142,5.03,5.03,0,0,1,1.03,1.748,6.6,6.6,0,0,1,.34,2.177,7.335,7.335,0,0,1-.348,2.33,5.075,5.075,0,0,1-1.055,1.82,4.531,4.531,0,0,1-1.656,1.162A5.5,5.5,0,0,1,108.742,588.7Zm.085-9.471h0a3.271,3.271,0,0,0-1.338.265,2.99,2.99,0,0,0-1.051.792,3.647,3.647,0,0,0-.7,1.244,5.141,5.141,0,0,0-.236,1.61,5.249,5.249,0,0,0,.231,1.614,3.585,3.585,0,0,0,.678,1.234,2.911,2.911,0,0,0,1.022.782,3.144,3.144,0,0,0,1.3.263,3.62,3.62,0,0,0,1.389-.251,2.806,2.806,0,0,0,1.039-.745,3.269,3.269,0,0,0,.663-1.208,5.571,5.571,0,0,0,.229-1.667,5.894,5.894,0,0,0-.223-1.707,3.354,3.354,0,0,0-.644-1.229,2.744,2.744,0,0,0-1.009-.747,3.478,3.478,0,0,0-1.359-.251Zm7.178,9h0V577.722h3.117a6.066,6.066,0,0,1,4.249,1.325,5.114,5.114,0,0,1,1.446,3.95,6.074,6.074,0,0,1-.395,2.24,4.973,4.973,0,0,1-1.2,1.773,5.223,5.223,0,0,1-1.858,1.141,7.005,7.005,0,0,1-2.361.374h-3v-.295Zm1.79-8.834h0v7.456h1.227a5.175,5.175,0,0,0,1.69-.253,3.34,3.34,0,0,0,1.232-.741,3.109,3.109,0,0,0,.765-1.187,4.826,4.826,0,0,0,.261-1.648,3.573,3.573,0,0,0-.951-2.727,4.139,4.139,0,0,0-2.926-.9Zm16.31-1.24h0l-3.33,6.369v4h-1.792v-3.973l-3.466-6.83h2.022c.784,1.576,1.642,3.2,2.376,4.789.8-1.6,1.659-3.2,2.483-4.789h1.933Zm14.207,10.368h-1.529l-1.081-2.863h-3.918l-1.019,2.863H138.8l4.143-10.8h1.644l4.158,10.8Zm-3.224-4.53h0l-1.351-3.668-1.34,3.668Zm13.642,4.53H157.1l-5.11-7.917c.009,2.638,0,5.279,0,7.917H150.2v-10.8h2.011l5.025,7.877c-.021-2.623,0-5.252,0-7.877h1.79v10.8Zm3.062-.295h0V577.722h3.115a6.066,6.066,0,0,1,4.249,1.325A5.107,5.107,0,0,1,170.6,583a6.074,6.074,0,0,1-.4,2.24,4.973,4.973,0,0,1-1.2,1.773,5.19,5.19,0,0,1-1.858,1.141,6.994,6.994,0,0,1-2.359.374h-3v-.295Zm1.788-8.834h0v7.456h1.229a5.171,5.171,0,0,0,1.688-.253,3.325,3.325,0,0,0,1.232-.741,3.108,3.108,0,0,0,.765-1.187,4.781,4.781,0,0,0,.261-1.648,3.58,3.58,0,0,0-.949-2.727,4.148,4.148,0,0,0-2.928-.9Zm21.548,9.129h-1.491v-4.657h-4.691v4.657h-1.79v-10.8h1.79V582.2h4.691v-4.479h1.788v10.8Zm7.475.172h0a5.408,5.408,0,0,1-2.068-.382,4.5,4.5,0,0,1-1.629-1.149,5.022,5.022,0,0,1-1.039-1.748,6.529,6.529,0,0,1-.346-2.173,7.228,7.228,0,0,1,.35-2.31,5.125,5.125,0,0,1,1.06-1.82,4.554,4.554,0,0,1,1.682-1.176,5.73,5.73,0,0,1,2.162-.389,5.184,5.184,0,0,1,2.022.38,4.485,4.485,0,0,1,1.6,1.142,4.972,4.972,0,0,1,1.03,1.748,6.6,6.6,0,0,1,.34,2.177,7.335,7.335,0,0,1-.348,2.33,5.047,5.047,0,0,1-1.055,1.82,4.531,4.531,0,0,1-1.656,1.162,5.49,5.49,0,0,1-2.109.387Zm.087-9.471h0a3.264,3.264,0,0,0-1.338.265,2.973,2.973,0,0,0-1.051.792,3.616,3.616,0,0,0-.7,1.244,5.085,5.085,0,0,0-.238,1.61,5.249,5.249,0,0,0,.231,1.614,3.589,3.589,0,0,0,.68,1.234,2.894,2.894,0,0,0,1.022.782,3.141,3.141,0,0,0,1.3.263,3.62,3.62,0,0,0,1.389-.251,2.791,2.791,0,0,0,1.039-.745,3.273,3.273,0,0,0,.665-1.208,5.574,5.574,0,0,0,.227-1.667,5.963,5.963,0,0,0-.221-1.707,3.357,3.357,0,0,0-.646-1.229,2.714,2.714,0,0,0-1.009-.747,3.468,3.468,0,0,0-1.357-.251Zm17.885,9.3h-1.486c0-2.427-.013-4.855,0-7.282l-3.238,7.282h-.968l-3.272-7.322v7.322h-1.744v-10.8h2.068c1.153,2.6,2.33,5.218,3.44,7.838l.234-.567,3.277-7.271h1.983v10.8Zm8.777,0h-5.706v-10.8h5.776V579.4h-3.988v2.8h3.689v1.667h-3.689v2.984h4.215v1.673Z" transform="translate(-46.43 -467.097)" fill="#7492be" fill-rule="evenodd"/>
    <path id="Path_88" data-name="Path 88" d="M893.019,1.6a7.463,7.463,0,0,1,6.441,3.727,7.3,7.3,0,0,1,1,3.71,7.222,7.222,0,0,1-1,3.7,7.434,7.434,0,0,1-12.871,0,7.223,7.223,0,0,1-1-3.7A7.433,7.433,0,0,1,889.305,2.6a7.3,7.3,0,0,1,3.714-1Zm0,13.738h0a6.086,6.086,0,0,0,4.449-1.858,6.054,6.054,0,0,0,1.871-4.443,6.342,6.342,0,0,0-3.169-5.47,6.166,6.166,0,0,0-3.151-.85,6.072,6.072,0,0,0-4.46,1.865,6.092,6.092,0,0,0-1.86,4.455,6.052,6.052,0,0,0,1.869,4.443A6.1,6.1,0,0,0,893.019,15.338Zm4.065-2.234h0l-1.438-2.255a3.615,3.615,0,0,0-1.563-1.491V9.322a3.059,3.059,0,0,0,1.744-.711A1.989,1.989,0,0,0,896.41,7.1a2.316,2.316,0,0,0-.4-1.323,1.789,1.789,0,0,0-.99-.758,5.792,5.792,0,0,0-1.563-.174H889.8V13.1h1.1V9.46h1.266a2.3,2.3,0,0,1,.913.129,2.393,2.393,0,0,1,.671.571,31.6,31.6,0,0,1,1.962,2.945ZM890.9,8.472h2.349c.873,0,1.431-.149,1.667-.45a1.474,1.474,0,0,0,.355-.919,1.256,1.256,0,0,0-.421-.971,1.963,1.963,0,0,0-1.34-.382H890.9Z" transform="translate(-714.396)" fill="#7492be" fill-rule="evenodd"/>
    <path id="Path_89" data-name="Path 89" d="M34.172,68.631,23.433,155.689H15.441L4.7,68.619l8.548,0,6.19,53.8,6.2-53.811Z" transform="translate(0 -54.345)" fill="#7492be" fill-rule="evenodd"/>
  </g>
</svg>
