<svg id="g7579" xmlns="http://www.w3.org/2000/svg" width="109" height="120" viewBox="0 0 109 120">
  <g id="g7581" transform="translate(0 96.789)">
    <path id="path7583" d="M43.774,1364.873a4.387,4.387,0,0,0,3.817-2.324,23.273,23.273,0,0,1-1.316-6.025c-.373-6.036,1.963-11.714,4.521-11.87,1.873-.112,3.373,1.653,3.546,4.514.46,7.521-2.055,10.661-3.313,13.367a4.466,4.466,0,0,0,3.689,2.838,2.433,2.433,0,0,0,1.567-.562,6.129,6.129,0,0,1-.253-1.806c0-4.358,2.816-8.032,5.255-8.032,1.938,0,3.064,2.553,3.064,4.237,0,1.989-1.689,3.611-4.189,5.168a3,3,0,0,0,1.939.748c3.567,0,5.434-4.3,6.817-8.221.25-.75.689-1.807,1.562-1.807,1.5,0,2.129,9.838,4.625,9.838,1.065,0,1.941-2.181,1.941-3.858,0-1.246-.438-1.37-.438-3.177,0-1.989,1.064-3.669,2.5-3.669.875,0,1.191.866,1.191,1.924,0,3.985-2.879,11.394-7.127,11.394-3.195,0-2.945-5.478-4.07-5.478-1.256,0-3.007,5.542-9.193,5.542a3.972,3.972,0,0,1-2.939-1.5,7.22,7.22,0,0,1-4.194,1.432c-2.311,0-3.313-2.366-4.25-2.366-1.128,0-2.375,2.43-6.131,2.43-3,0-3.5-3.982-4.563-3.982-.94,0-2.377,3.982-3.94,3.982-2.631,0-3.189-6.911-5.506-6.911-1.813,0-7.544,7.019-9.1,6.859-.626-.065-.888-.532-.823-1.154a43.463,43.463,0,0,1,1.136-4.257c.506-1.893.97-3.968,1.229-4.63a1.662,1.662,0,0,1,1.509-1.092c.281.027.366.548.453.978.315,1.539.757,3.109,1.254,3.109.878,0,3.78-5.542,5.467-5.542,2.066,0,2.315,8.718,5.126,8.718.94,0,1.631-1.119,2.255-2.492.064-2.308.688-5.6,2.564-5.6,1.316,0,1.942,2.922,1,5.478C40.458,1364.126,42.458,1364.873,43.774,1364.873Zm51.657-9.212c1.128,0,.626,7.034,2.192,7.034.939,0,2.187-8.778,8.065-8.778,2,0,3.311,1.117,3.311,2.549a1.821,1.821,0,0,1-1.808,1.872c-2.252,0-1.69-1.683-2.626-1.683-2.5,0-4.32,4.792-6.189,8.966-.753,1.678-1.193,1.991-1.817,1.991-1.569,0-1.939-4.3-2.567-6.165-1.313,2.8-3.813,6.165-7.943,6.165-2.375,0-4.744-1.246-4.744-5.041,0-4.233,2.746-7.286,5.559-7.286a3.887,3.887,0,0,1,3.565,3.736c0,4.174-5.507,4.294-5.507,5.167,0,.81,1.441,1.123,2.252,1.123,3.506,0,5.856-4.707,6.631-7.907C93.938,1356.849,94.429,1355.661,95.43,1355.661Zm-43.114-4.813c-.108-1.739-.531-2.524-1.47-2.462-1.246.076-1.822,3.978-1.567,8.076.162,2.675.563,3.087.935,3.062C50.9,1359.484,52.556,1354.7,52.317,1350.848Zm-12.416-.664a1.829,1.829,0,0,1-1.878-1.871,2.473,2.473,0,0,1,2.186-2.8,1.832,1.832,0,0,1,1.937,1.678C42.272,1348.627,41.272,1350.184,39.9,1350.184Zm21.7,9.708c0-1.056-.566-1.927-1.248-1.927-.569,0-1.878.619-1.878,2.612a3.852,3.852,0,0,0,.813,2.619A3.226,3.226,0,0,0,61.6,1359.891Zm22.638,2.681a4.015,4.015,0,0,0,3.19-2.306c.312-.936-.064-2.485-1.379-2.485C83.673,1357.781,83.86,1361.636,84.237,1362.572Zm-70.2-9.212a19.407,19.407,0,0,1-.843-2.777c-.312-2.079.78-3.45,1.783-3.764,1.126-.312,1.565.249,2,1.558.564,1.991.626,4.6.438,8.34-.247,5.106-2.813,11.269-9.19,11.142-5.506-.12-7.942-3.67-8.195-9.086a24.734,24.734,0,0,1,1.126-8.714c.563-1.932,1.065-2.619,2.814-2.991,1.375-.249,1.251,1.18.939,2.868a32.983,32.983,0,0,0-.75,9.772c.245,4.481,2.314,6.226,4.565,6.226,3.376.064,4.876-2.738,5.5-6.787A11.769,11.769,0,0,0,14.038,1353.36Z" transform="translate(0.001 -1344.65)" fill="#7492be" fill-rule="evenodd"/>
  </g>
  <g id="g7585" transform="translate(85.184 15.788)">
    <path id="path7587" d="M1185.756,224.445c.959.332.86,1.754.86,3.57,0,3.17-.331,7.193-1.191,7.267-1.289.1-6.043-4.13-6.474-7.267C1180.241,228.146,1184.235,227.519,1185.756,224.445Zm-8.722.861a1.263,1.263,0,0,1,1.422-1.156c3.009,0,5.779-2.016,5.779-3.834a1.454,1.454,0,0,0-.33-1.056,2.012,2.012,0,0,1,1.884,2.214c0,2.412-3.142,5.154-6.575,5.154C1177.928,226.627,1177.034,226.231,1177.034,225.306Zm1.454-2.412a1.433,1.433,0,0,1-1.488-.726c-.3-.6-.2-1.554-.76-1.984a5.779,5.779,0,0,0,1.621.164c1.489,0,2.911-1.023,4-1.023a.855.855,0,0,1,.951.925C1182.813,221.706,1179.878,222.894,1178.489,222.894Z" transform="translate(-1176.24 -219.26)" fill="#7492be" fill-rule="evenodd"/>
  </g>
  <g id="g7589" transform="translate(10.272 37.739)">
    <path id="path7591" d="M145.424,531.886c1.122,0,.891-6.872,2.708-6.872.43,0,.562.43.562.958,0,1.552-.76,3.832-.76,5.087,0,.628.165.827.462.827.794,0,2.181-7.566,3.536-7.566.43,0,.626.429.626.861,0,1.585-2.015,6.143-2.015,7.431,0,.2.067.363.231.363.827,0,2.479-3.566,3.006-5.35.3-.926.694-1.422,1.057-1.422.331,0,.629.364.629,1.124,0,1.784-1.653,5.979-3.1,8.789-1.123,2.179-2.875,5.316-2.875,7.068a3.5,3.5,0,0,0,1.454,2.94c-2.116-.132-2.975-.33-3.766-1.982-3.535,7.036,6.508,6.342,3.071,12.585-.629-1.121-5.583-2.278-5.583-8.82,0-5.648,4.955-8.951,4.955-11.3a1.508,1.508,0,0,0-.594-1.222c-1.09-.925-1.124-1.683-1.98-1.683-.63,0-1.39,1.452-.6,2.741.265.43.5.693.5,1.09,0,.925-1.455,3.4-2.477,3.4s-1.816-2.541-1.816-6.639c0-3.633.825-7.3,1.848-7.3.3,0,.4.2.4.462,0,.429-.132,1.288-.132,2.74C144.764,531.753,145.127,531.886,145.424,531.886Z" transform="translate(-142.65 -524.32)" fill="#7492be"/>
  </g>
  <g id="g7593" transform="translate(19.787 38.93)">
    <path id="path7595" d="M275.164,556.894c1.39,0,2.544-1.025,2.544-3.3v-3.371a5.771,5.771,0,0,1,.96-3.766,5.935,5.935,0,0,0-.1,1.321c0,2.841,1.585,4.791,1.585,7.533,0,1.022-.3,1.585-1.089,1.585-.761,0-.695-.695-.86-.695-.132,0-.331.43-.331.894a1.787,1.787,0,0,0,1.883,1.783,2.267,2.267,0,0,0,2.148-2.312c0-2.971-2.312-6.276-2.312-9.446a7.421,7.421,0,0,1,.66-3.041c0,6.575,5.583,11.364,5.583,14.1a1.1,1.1,0,0,1-1.155,1.124,1.078,1.078,0,0,1-1.125-1.059c0-.231-.034-.3-.132-.3a1.69,1.69,0,0,0-.793,1.521,2.472,2.472,0,0,0,2.544,2.412,2.926,2.926,0,0,0,2.906-3.007c0-3.467-6.773-8.72-6.773-14.335a7.776,7.776,0,0,1,.859-3.7c-4.361,2.807-5.714,6.541-5.714,9.812,0,2.841-.1,4.259-1.552,4.259-.761,0-.958-.691-1.223-.691-.2,0-.3.594-.3.758A1.811,1.811,0,0,0,275.164,556.894Z" transform="translate(-273.38 -540.84)" fill="#7492be"/>
  </g>
  <g id="g7597" transform="translate(71.683 16.548)">
    <path id="path7599" d="M990.68,231.066c.419-.282,2.28.165,4.689-1.025a1.765,1.765,0,0,1,.858-.231c1.159,0,.859,1.321,1.92,1.321.825,0,1.884-.695,2.512-.695.985,0,2.406,3.106,2.406,4.56,0,1.686-2.538,2.709-5.547,2.709-4.39,0-7.037-3.831-7.037-6.309A.348.348,0,0,1,990.68,231.066Zm7.2,4.2c1.455,0,2.546-.661,2.546-1.058,0-.13-.2-.231-.629-.231a18.215,18.215,0,0,1-2.91-.3c-1.389-.233-2.447-.76-2.844-.76-.132,0-.2.065-.2.164C993.846,233.94,995.434,235.261,997.882,235.261Z" transform="translate(-990.48 -229.81)" fill="#7492be" fill-rule="evenodd"/>
  </g>
  <g id="g7601" transform="translate(19.423 66.272)">
    <path id="path7603" d="M271.181,921.826c-1.089.265-2.841,1.981-2.841,4.693,0,3.237,3.469,8.225,9.185,8.225,4.822,0,6.012-3.335,6.012-5.584,0-4.989-3.071-8.49-7.068-8.49a3.986,3.986,0,0,0-4.13,3.931,5.468,5.468,0,0,0,5.583,5.451,2.783,2.783,0,0,0,2.939-2.839,3.654,3.654,0,0,0-3.336-3.534A.968.968,0,0,0,276.5,924.7c0,.793,1.091,1.586,2.445,1.586a1.761,1.761,0,0,0,.727-.132.793.793,0,0,1,.1.4c0,.76-.729,1.224-1.851,1.224a3.236,3.236,0,0,1-3.3-3.241c0-1.187,1.025-2.046,2.511-2.046,2.94,0,4.691,2.608,4.691,5.22,0,2.343-1.288,3.7-3.93,3.7C272.6,931.409,270.026,926.651,271.181,921.826Z" transform="translate(-268.34 -920.67)" fill="#7492be"/>
  </g>
  <g id="g7605" transform="translate(30.289 74.461)">
    <path id="path7607" d="M447.693,1046.75a15.61,15.61,0,0,0,2-.132c.495,0,.529.3.529.5,0,.727-1.62,1.621-4.493,1.621a2.919,2.919,0,0,1-3.008-1.884,13.026,13.026,0,0,1-6.64,2.015c-6.772,0-8.49-2.942-10.6-3.9-1.621-.727-4.1.694-7.566-3.172a8.325,8.325,0,0,0,1.587.133c3.036,0,4.656-1.486,4.656-3.866a8.2,8.2,0,0,0-.067-.92,6.551,6.551,0,0,1,3.536,4.752c.067.332,1.421.628,2.278.628a2.687,2.687,0,0,0,2.941-2.443c3.965-.33,6.643-2.675,7.2-5.651a7.847,7.847,0,0,1,3.434,2.414,5.96,5.96,0,0,1,1.982-.3,12.684,12.684,0,0,1,3.667.629c.067-.431.133-.96.794-.96.991,0,.726,1.09,1.056,1.715.166.331.994.53.994,1.19a.847.847,0,0,1-.861.861,1.459,1.459,0,0,1-.4-.065c-.66.231-.692,4.986-3.469,4.986-2.047,0-3.93-1.684-4.757-3.8a1.415,1.415,0,0,0-1.19-1.025c-.527,0-.825.1-1.452.794a11.489,11.489,0,0,1-8.425,3.63c-1.124,0-2.015-.1-2.247-.1-.132,0-.132.032-.132.065,0,.233,1.123,1.126,3.569,1.126,5.813,0,7.235-3.272,8.16-3.272a.767.767,0,0,1,.758.529A6.487,6.487,0,0,0,447.693,1046.75Zm-2.561-6.6a1.321,1.321,0,1,0,1.321-1.323A1.325,1.325,0,0,0,445.132,1040.148Z" transform="translate(-417.91 -1034.43)" fill="#7492be" fill-rule="evenodd"/>
  </g>
  <g id="g7609" transform="translate(72.2 62.309)">
    <path id="path7611" d="M1005.5,869.055c-.693,0-4.532,5.121-7,5.121-.6,0-1.09-1.125-1.09-1.979,0-.464.294-.794,1.355-1.025,5.68-1.29,4.423-5.552,9.277-5.552a5.542,5.542,0,0,1,5.652,5.915c0,4.361-6.208,9.777-7.133,9.777-.762,0-1.587-1.089-1.587-1.816,0-.23.1-.529.76-.793,3.167-1.257,4.983-4.162,4.983-5.651a.585.585,0,0,0-.6-.656c-.559,0-2.965,5.481-5.644,5.481-1.852,0-3.736-1.683-3.736-2.477,0-1.321,5.356-3.765,5.356-5.617C1006.1,869.088,1005.768,869.055,1005.5,869.055Zm3.563-2.047c-.462,0-.957.365-.957,1.258a2.093,2.093,0,0,0,1.19,1.814,2.049,2.049,0,0,0,.956.265c.96,0,1.72-.265,1.72-1.059C1011.974,868.266,1010.487,867.008,1009.066,867.008Z" transform="translate(-997.41 -865.62)" fill="#7492be" fill-rule="evenodd"/>
  </g>
  <g id="g7613" transform="translate(9.61 15.821)">
    <path id="path7615" d="M146.94,228.035a1.322,1.322,0,1,1-1.323,1.321A1.325,1.325,0,0,1,146.94,228.035Zm-1.72-2.973a1.321,1.321,0,1,1-1.32,1.321A1.327,1.327,0,0,1,145.22,225.062Zm-2.741,11.893a3.847,3.847,0,0,0,1.255,2.872,2.154,2.154,0,0,1-1.288.33,1.944,1.944,0,0,1-2.081-1.949,3.144,3.144,0,0,1,2.345-2.774A4.466,4.466,0,0,0,142.479,236.955Zm-4.527.36a6.98,6.98,0,0,0,1.19-.1A3.558,3.558,0,0,1,136.5,238.8c-1.09,0-1.915-.859-1.915-2.412a2.55,2.55,0,0,1,.032-.495A3.958,3.958,0,0,0,137.952,237.315Zm-1.386,3.5a14.63,14.63,0,0,0,3.17-.495c-1.683,1.453-3.1,2.213-4.161,2.213-1.354,0-2.114-1.19-2.114-3.7C134.453,240.356,135.376,240.818,136.566,240.818Zm.56-18.861a2.2,2.2,0,0,1,2.215-2.247c2.246,0,2.973,2.413,2.973,4a6.509,6.509,0,0,1-.3,1.915C139.735,225.623,137.125,224.567,137.125,221.957Zm.266,6.442a6.693,6.693,0,0,1,3.832-1.058,7.159,7.159,0,0,1,.726.032c.6.067,1.069.077,1.223.231.269.269.107.779.528,1.354s.927.5.927,1.124a6.9,6.9,0,0,1-3.305,4.626,6.3,6.3,0,0,1-2.775.791c-1.289,0-2.18-.56-2.973-.56-.132,0-.3.066-.562.066a.646.646,0,0,1-.527-.991C134.946,233.255,134.524,230.227,137.391,228.4Zm4.2.2a.8.8,0,0,0-.5-.132c-.493,0-.858.065-.858.691,0,.992.925,2.743,2.082,2.743.529,0,.794-.6.794-1.058,0-.231-.632-.614-.86-.925C141.883,229.422,141.883,228.762,141.586,228.6Zm-1.156,4.789c0-.066-.065-.1-.164-.166a3.754,3.754,0,0,1-2.247-3c-.032-.233-.1-.332-.231-.332-.364,0-.859.827-.859,1.488a2.727,2.727,0,0,0,2.278,2.576C139.8,233.948,140.43,233.617,140.43,233.386Zm8.688,3.569c0,1.419-.76,2.805-2.378,2.805-1.684,0-2.776-1.486-2.776-3.269a6.269,6.269,0,0,1,1.487-3.8C147.1,233.188,149.119,234.742,149.119,236.955Zm-10.736-10.6a3.974,3.974,0,0,1-2.148.726,2.484,2.484,0,0,1-2.544-2.542,2.784,2.784,0,0,1,1.751-2.61,3.267,3.267,0,0,0-.032.562A3.844,3.844,0,0,0,138.383,226.351Z" transform="translate(-133.46 -219.71)" fill="#7492be" fill-rule="evenodd"/>
  </g>
  <g id="g7617" transform="translate(60.902 25.325)">
    <path id="path7619" d="M854.953,358.537a1.387,1.387,0,1,1-1.38,1.385A1.4,1.4,0,0,1,854.953,358.537Zm.267,4a1.552,1.552,0,1,1-1.548,1.55A1.551,1.551,0,0,1,855.22,362.534Zm-4.027,2.08a2.28,2.28,0,1,1-2.281,2.28A2.287,2.287,0,0,1,851.193,364.613Zm.264-3.7a1.321,1.321,0,1,1-1.323,1.321A1.326,1.326,0,0,1,851.457,360.914Zm-4.333,2.643a1.321,1.321,0,1,1-1.315,1.321A1.326,1.326,0,0,1,847.123,363.557Zm4.2-8.522a2.114,2.114,0,1,1-2.115,2.116A2.13,2.13,0,0,1,851.323,355.035Zm1.621-3.205a1.255,1.255,0,1,1-1.256,1.256A1.256,1.256,0,0,1,852.944,351.83ZM846.959,355a1.255,1.255,0,1,1-1.249,1.255A1.255,1.255,0,0,1,846.959,355Zm.594,3.534a2.015,2.015,0,1,1-2.009,2.013A2,2,0,0,1,847.553,358.537Zm-4.29,2.246a1.882,1.882,0,1,1-1.883,1.883A1.905,1.905,0,0,1,843.263,360.783Zm.56-4.1a1.321,1.321,0,1,1-1.32,1.321A1.327,1.327,0,0,1,843.823,356.687ZM854.1,368.181a1.27,1.27,0,0,1,1.249-1.222,1.255,1.255,0,1,1-1.249,1.222Z" transform="translate(-841.38 -351.83)" fill="#7492be" fill-rule="evenodd"/>
  </g>
  <g id="g7621" transform="translate(64.552 73.143)">
    <path id="path7623" d="M905.62,1022.23c0,3.136-4.621,7-10.806,7a2.7,2.7,0,0,1-2.934-2.638,7.45,7.45,0,0,1,1.81-4.526c.363-.431.727-.761,1.058-.761a8.184,8.184,0,0,0,2.844.561,9.727,9.727,0,0,0,6.208-2.144C904.563,1019.721,905.62,1020.448,905.62,1022.23Zm-7.1-1.781c-1.786,0-3.24-.629-3.24-1.256v-1.521c0-.464,1.289-1.551,3.7-1.551,1.985,0,3.433.559,3.433,1.518v.76a1.2,1.2,0,0,1-.331.958A5.5,5.5,0,0,1,898.518,1020.448Zm-.627,3.2h-.431a6.227,6.227,0,0,1,.065.76,7.787,7.787,0,0,1-.462,2.406,6.373,6.373,0,0,0,3.6-1.054,2.9,2.9,0,0,0,1.513-2.442c0-.6-.2-.695-.364-.695A7.461,7.461,0,0,1,897.891,1023.652Z" transform="translate(-891.88 -1016.12)" fill="#7492be" fill-rule="evenodd"/>
  </g>
  <g id="g7625" transform="translate(59.75 39.294)">
    <path id="path7627" d="M842.746,555.578c0,.825.265,1.784,1.092,1.784.693,0,1.289-1.056,1.289-2.213,0-1.321-.231-2.347-.231-2.875,0-.23.1-.329.231-.329.5.032.96,1.386,1.489,1.386.6,0,1.481-1.09,1.844-1.09.1,0,.132.132.132.165,0,.5-.76,1.588-.76,2.015,0,.363,1.917.43,1.917.76,0,.5-2.009.5-2.967.926-.926.4-1.488.891-1.488,1.552s.66.791,1.588.791c2.207,0,3.759-1.188,4.255-1.188a.156.156,0,0,1,.164.166c0,.331-1.123,1.419-1.123,1.915,0,.562,2.05,1.221,2.018,1.551-.033.1-.166.132-.4.132-.364,0-.926-.1-1.357-.1a.764.764,0,0,0-.6.165c-.228.265.066,2.014-.393,2.014-.431,0-1.555-3.9-4.093-3.9-.364,0-.628.3-.628.793,0,1.32,1.289,2.839,2.512,3.566.554.363,1.481.727,1.481.926,0,.394-2.109.032-2.109.692,0,.6.265,1.488.265,2.016,0,.166-.034.363-.233.363-.4,0-1.355-1.816-1.819-1.816-.4,0-1.255,1.089-1.621,1.089a.183.183,0,0,1-.163-.2c0-.761,1.222-2.478,1.222-4.164,0-.792-.1-2.511-1.059-2.511-.793,0-1.686,1.255-2.083,2.511-.231.726-.065,3.535-.594,3.535-.5,0-.364-1.883-1.026-1.883-.487,0-1.545.891-1.91.891-.066,0-.132-.034-.132-.1,0-.4.958-1.684.958-1.95,0-.495-2.182-.56-2.182-.957,0-.23.859-.4,1.653-.529,1.68-.3,4.16-1.52,4.16-3.235,0-1.917-1.853-2.743-3.068-3.537-.629-.4-1.323-.724-1.323-.989s.794-.265,1.125-.265c.495,0,.985-.033.985-.429,0-.3-.068-.891-.068-1.354,0-.332.035-.6.168-.6.495,0,1.19,1.619,1.52,1.619.529,0,1.256-1.321,1.753-1.321.163,0,.23.1.23.4C843.374,553,842.746,554.387,842.746,555.578ZM826.988,545.9c.364,2.807,4.133,1.386,4.133,4.789,0,.5-.132,1.223-.132,1.848,0,.729.066,1.357.621,1.357s.695-.4.695-.926-.133-1.189-.133-1.552A1.279,1.279,0,0,1,833.495,550c1.258,0,2.216,1.289,4.1,1.289-.43,2.113-4.8,1.55-4.8,3.865,0,1.156,1.159,1.419,1.918,1.419.695,0,.928-.1.928-.691,0-.332-.068-.695-.068-.926a.262.262,0,0,1,.266-.265c.727,0,4.29,2.709,4.29,3.536,0,.758-3.763,1.519-4.853,1.519a.352.352,0,0,1-.4-.363c0-.231.561-.926.561-1.321,0-.3-.495-.495-1.819-.495-.628,0-1.09.065-1.09.562,0,.891,1.455,1.981,1.455,2.805,0,.661-.4,1.058-1.455,1.058-.894,0-2.242-.695-2.242-1.85,0-.925.953-1.849.953-2.41a.46.46,0,0,0-.523-.431c-1.224,0-1.554,3.237-5.885,3.6a3.311,3.311,0,0,0,1.289-2.738c0-.695-.164-1.258-.164-2.016,0-.991.462-1.488,1.123-1.488,1.222,0,1.816,1.717,2.612,1.717a.955.955,0,0,0,.894-.99c0-2.51-4.827-2.147-4.827-5.682A8.192,8.192,0,0,1,826.988,545.9Z" transform="translate(-824.84 -545.9)" fill="#7492be"/>
  </g>
  <g id="g7629" transform="translate(52.661 55.64)">
    <path id="path7631" d="M740.862,773.7c3.471.661,5.355,3.271,5.355,5.715a2.99,2.99,0,0,1-2.91,3.235,2.8,2.8,0,0,1-2.9-3.006c0-1.387,1.083-2.84,1.083-4.261A2.556,2.556,0,0,0,740.862,773.7Zm-3.6,1.75c1.522.2,1.886.727,1.886,1.159,0,.726-.662.955-1.292.955-.462,0-.991-.1-1.553-.1a2.5,2.5,0,0,0-2.049.859,1.129,1.129,0,0,1,1.058,1.025c0,1.915-5.32.329-5.32,5.253,0,2.608,2.71,5.451,6.806,5.451,2.116,0,3.472-.695,3.472-1.488,0-.627-1.123-.2-1.123-.727,0-.231.4-.662.4-1.025,0-.161-.132-.459-.4-.459-.6,0-1.719.956-4,.956-1.784,0-3.535-1.022-3.535-2.41,0-.3.132-.464.33-.464s.462.134.693.134c.2,0,.233-.134.233-.5s0-1.388.627-1.388,1.817,2.314,6.381,2.314c1.514,0,4.456-.3,5.547-1.289a8.586,8.586,0,0,1-8.822,8.423,9.323,9.323,0,0,1-9.483-9.514,9.725,9.725,0,0,1,9.78-9.643c1.452,0,2.677.493,2.677,1.122C739.577,774.952,737.429,774.423,737.263,775.445Zm2.415,6.346a1.54,1.54,0,0,1-1.557,1.583,1.452,1.452,0,0,1-1.452-1.486c0-.561.23-1.09.23-1.586a1.327,1.327,0,0,0-.429-.989C738.385,779.313,739.678,780.535,739.678,781.792Zm11.791-1.191a2.286,2.286,0,0,1-2.281,2.377,1.97,1.97,0,0,1-2.077-1.98c0-.96.628-1.817.628-2.743a1.951,1.951,0,0,0-.331-1.054C749.882,777.364,751.469,778.849,751.469,780.6Zm-8.889-2.511a.792.792,0,0,0,.794.827.911.911,0,0,0,.861-.993c0-.691-.629-1.651-1.225-1.651-.265,0-.165.4-.233.827C742.745,777.427,742.58,777.825,742.58,778.09Z" transform="translate(-727.12 -772.97)" fill="#7492be" fill-rule="evenodd"/>
  </g>
  <g id="g7633" transform="translate(26.036 17.671)">
    <path id="path7635" d="M374.861,248.143c2.18,0,3.17,1.883,3.17,4,0,.924-.262,2.279-.692,2.279s-.364-.76-.429-1.455c-.067-.89-.231-1.089-.529-1.089-.562,0-.924,1.32-.924,2.543,0,.759.132,1.619.726,1.619a1.2,1.2,0,0,0,.825-.364,2.956,2.956,0,0,1-2.841,2.842c-2.907,0-4-3.4-4.328-5.385-1.751,1.85-3.368,3.205-6.277,3.205a3.719,3.719,0,0,1-3.932-3.865c0-.562.2-2.015.894-2.015.825,0,.1,2.707,1.717,2.707.4,0,1.123-.33,1.52-1.419a6.126,6.126,0,0,0,.364-1.949c0-.893-.2-1.453-.858-1.453a2.6,2.6,0,0,0-1.489.659,4.978,4.978,0,0,1,4.822-3.6c2.612,0,4,2.314,4,4.889a6.566,6.566,0,0,1-.1,1.123C371.622,249.562,373.176,248.143,374.861,248.143Zm-2.546,3.9c0-.562-.132-.693-.263-.693-.331,0-.693.4-1.222,1.289.066,1.19.265,1.718.6,1.718C371.787,254.354,372.316,253.2,372.316,252.04Zm-4.526,1.354c.363,0,.827-.4,1.686-1.354a8.317,8.317,0,0,0,.067-1.321c0-.661-.265-1.388-.661-1.388-.992,0-1.487,2.644-1.487,3.339C367.395,253.064,367.591,253.394,367.79,253.394Zm5.386,2.942c.825,0,1.75-3.173,1.75-5.154,0-.43-.065-.892-.264-.892-.695,0-1.851,3.271-1.851,5.054C372.812,256.038,372.978,256.336,373.176,256.336Zm-8.093-1.817c1.123,0,2.409-6.077,2.409-7.1,0-.265-.1-.464-.328-.464-1.024,0-2.445,5.781-2.445,7.07C364.719,254.255,364.786,254.518,365.083,254.518Z" transform="translate(-359.63 -245.4)" fill="#7492be" fill-rule="evenodd"/>
  </g>
  <g id="g7637" transform="translate(24.941 29.288)">
    <path id="path7639" d="M354.642,406.88c-1.421,0-1.486,1.72-1.486,5.186-1.056-2.278-2.808-4.722-4.856-4.722-1.387,0-1.915.926-1.915,2.542a6.121,6.121,0,0,0,.1,1.123,1.252,1.252,0,0,1,1.355-.791,6.031,6.031,0,0,1,4.262,2.576,21.991,21.991,0,0,0-3.6-.462,4.147,4.147,0,0,0-1.75.3,4.388,4.388,0,0,0-2.247,4,6.589,6.589,0,0,0,.1,1.09c1.155-2.578,4.228-3.733,6.21-3.733a6.421,6.421,0,0,1,.925.065,5.391,5.391,0,0,0-1.322,3.634c-.032.529-.23.562-.594.562,0,1.089.86,2.71.86,3.535a.7.7,0,0,1-.331.628c0,1.453,1.453,2.511,1.453,3.435a.777.777,0,0,1-.166.529c.1.6,1.7,1.595,1.9,2.1.253.609.539.713.706.713.562,0,1.452-.662,1.452-1.256a.784.784,0,0,0-.295-.529,4.867,4.867,0,0,1-1.224-2.113.617.617,0,0,1-.635-.486c-.181-.685-.19-1.959-.455-2.72-.43-.1-.628-.264-.628-1.154,0-.431.265-2.116.265-2.711a.468.468,0,0,1-.462-.529c0-1.056,1.058-1.883,1.354-3.237a4.858,4.858,0,0,1,2.345,4.063,8.692,8.692,0,0,1-.231,1.884c1.388-.695,3.47-1.718,3.47-3.8,0-1.224-.562-2.578-4.3-3.106a11.673,11.673,0,0,1,3.833-.66c2.113,0,3.336.66,3.6,2.145a4.116,4.116,0,0,0,.761-2.112,2.8,2.8,0,0,0-3.074-2.677c-2.014,0-3.8,1.056-5.715,2.347.861-1.784,1.454-2.841,2.511-2.841a2.6,2.6,0,0,1,.5.067C356.921,408.3,355.436,406.88,354.642,406.88Z" transform="translate(-344.5 -406.88)" fill="#7492be"/>
  </g>
  <g id="g7641" transform="translate(85.084 53.097)">
    <path id="path7643" d="M1180.863,737.63c1.653,0,2.975,2.148,2.975,4.659a10.384,10.384,0,0,1-3.5,7.562c-.035-4.457-5.492-3.037-5.492-6.275a2.193,2.193,0,0,1,2.184-2.312,3.349,3.349,0,0,1,2.48.894,2.926,2.926,0,0,1-.894-2.114A2.246,2.246,0,0,1,1180.863,737.63Z" transform="translate(-1174.85 -737.63)" fill="#7492be"/>
  </g>
  <g id="g7645" transform="translate(60.553 16.252)">
    <path id="path7647" d="M842.634,228.77a2.465,2.465,0,0,0-1.712-.659,2.672,2.672,0,0,0-2.646,1.949,3.117,3.117,0,0,1-.232-1.125,3.192,3.192,0,0,1,3.407-3.236,5.806,5.806,0,0,1,3.234,1.123c.328,0,.66-.332.925-.332.364,0,.364.563.364.96,0,1.32-.594,3.6-2.083,4.426a3.363,3.363,0,0,0-1.648-1.585.525.525,0,0,1-.331-.5A1.338,1.338,0,0,1,842.634,228.77Zm-4.986,2.411a3.511,3.511,0,0,0,2.544,1.19c.366,0,.8-.1,1.028-.1.3,0,.495.13.495.361a2.077,2.077,0,0,1-.727,1.29,3.335,3.335,0,0,0,1.29.231,3.888,3.888,0,0,0,4.026-4.163,4.424,4.424,0,0,1,.63,2.114c0,3.6-2.646,4.987-5.086,4.987a7.144,7.144,0,0,1-2.582-.529c-.625,0-.593,1.256-1.022,1.223-.761-.132-1.453-1.817-1.453-3.6A5.253,5.253,0,0,1,837.648,231.182Z" transform="translate(-836.79 -225.7)" fill="#7492be"/>
  </g>
  <g id="g7649" transform="translate(9.875 0.032)">
    <path id="path7651" d="M170.34,11.813c-1.784,0-5.55-1.784-6.84-1.784-.363,0-.461.1-.461.43,0,1.256,2.443,5.218,2.443,6.967,0,.464-.165.828-.626.828-1.488,0-4.791-3.964-5.946-3.964-1.058,0-.6,3.336-1.586,3.336-.791,0-1.486-1.917-2.347-1.917s-1.419,6.607-2.773,6.607c-1.586,0-.96-6.111-2.016-6.111-.825,0-1.949,2.082-3.172,2.082-.659,0-.858-.529-.858-1.289,0-.958.3-2.278.3-3.139,0-.462-.034-.989-.464-.989-1.223,0-5.681,3.269-7.4,3.269-.361,0-.626-.165-.626-.529,0-1.619,5.647-6.473,5.647-7.6,0-1.025-6.473-.1-6.473-1.092,0-1.123,4.593-3.07,4.593-3.8,0-.758-4.427-1.024-4.427-1.883,0-.563,1.055-.792,3.006-.792,1.617,0,5.815.428,5.815,1.388,0,1.089-3.538,2.18-3.538,3.237,0,1.256,4.957.527,4.957,1.619,0,1.123-3.6,3.634-3.6,4.426,0,.132.165.2.3.2.858,0,3.1-1.652,4.13-1.652.4,0,.528.264.528.727,0,.925-.56,2.477-.56,3.434,0,.23.066.5.329.5.727,0,1.884-3.139,2.908-3.139.926,0,.1,4.724,1.058,4.724.825,0,.992-4.295,1.851-4.295.824,0,1.222,2.412,2.082,2.412.361,0,.4-.462.4-1.222V11.681c0-.727.032-1.222.4-1.222.993,0,3.8,3.3,4.394,3.3.132,0,.165-.132.165-.231,0-.89-1.883-3.9-1.883-5.482,0-.529.2-.892.727-.892,1.156,0,3.6,1.356,4.723,1.356.364,0,.6-.132.6-.5,0-1.354-4.03-4.1-4.03-5.22,0-1.09,4.493-2.213,7.564-2.213.4,0,1.192,0,1.192.428,0,.825-3.814,1.532-4.732,2.5a.589.589,0,0,0-.191.41c.058,1.552,5.419,5.152,5.419,7.135C171.3,11.482,170.936,11.813,170.34,11.813Zm0-7.993c.86,0,1.288.032,1.288,1.022,0,.794-.166,1.554-.726,1.554-.958,0-3.039-1.289-3.039-1.883C167.863,4.117,169.251,3.82,170.34,3.82ZM158.482,2.63c0,1.023,2.939,1.882,2.939,2.675,0,.231-.2.3-.4.3-.56,0-1.585-.462-2.344-.462-.529,0-.925.266-.925.827,0,.925.992,2.347.992,3.039a.375.375,0,0,1-.364.4c-.793,0-1.65-2.543-2.809-2.543-1.419,0-.989,3.667-1.982,3.667-.957,0,.2-3.733-1.552-3.733-1.058,0-2.18,1.686-2.841,1.686-.166,0-.33-.066-.33-.265,0-.66,1.785-2.148,1.785-2.975,0-.429-.43-.527-.894-.527-.827,0-1.982.329-2.71.329-.33,0-.593-.1-.593-.329,0-.693,3.336-1.025,3.336-2.18,0-1.09-1.553-.926-1.553-1.323,0-.3,1.221-.529,2.543-.529,2.18,0,1.753,1.852,3.471,1.852,1.65,0,1.354-1.785,3.5-1.785,1.354,0,2.345.2,2.345.4C160.1,1.605,158.482,1.605,158.482,2.63ZM141.135,9.138c0,.66-2.509,2.872-3.4,2.872-.331,0-.43-.4-.43-.758a2.93,2.93,0,0,1,.661-1.882,3.682,3.682,0,0,1,2.179-.593C140.606,8.776,141.135,8.872,141.135,9.138Zm24.449,3.2c.925,0,5.121,3.3,5.717,4.128a1.352,1.352,0,0,1,.2.726c0,.993-.493,2.148-1.155,2.148-.793,0-4.923-5.648-4.923-6.8A.185.185,0,0,1,165.584,12.341Z" transform="translate(-137.14 -0.45)" fill="#7492be" fill-rule="evenodd"/>
  </g>
  <g id="g7653" transform="translate(78.912 0.098)">
    <path id="path7655" d="M1096.526,10.676c0-2.346-5.611-2.94-5.611-3.469,0-.428,3.134-1.157,4.753-1.19-2.477-3.17-6.008-2.84-6.008-3.4,0-.332,2.644-.993,5.085-.993,2.048,0,3.965.462,3.965,2.015,0,.86-.693,1.753-.693,3.074a1.22,1.22,0,0,0,1.323,1.354c1.025,0,1.256-1.09,1.256-2.247,0-.957-.166-1.684-.166-2.147a2.2,2.2,0,0,1,2.309-2.312c1.124,0,1.388.495,3.041.495a2.52,2.52,0,0,0-1.222,1.949c0,1.388.894,2.347.894,5.187,0,5.218-4.889,7.068-10.871,7.068a34.212,34.212,0,0,1-5.119-.4c-.263-.032-.33-.1-.33-.264,0-.431,2.348-.662,2.348-2.774a16.538,16.538,0,0,0-.265-1.917.26.26,0,0,1,.265-.264c.5,0,1.489,1.915,3.333,1.915A1.573,1.573,0,0,0,1096.526,10.676Zm5.384-7.3a.827.827,0,1,0,.827-.827A.817.817,0,0,0,1101.911,3.376Zm.2,3.964c0,2.939-2.141,5.186-6.011,5.812.431.032.828.032,1.225.032,4.523,0,6.176-2.047,6.176-3.764A2.1,2.1,0,0,0,1102.107,7.34Z" transform="translate(-1089.13 -1.36)" fill="#7492be" fill-rule="evenodd"/>
  </g>
  <g id="g7657" transform="translate(75.308 25.589)">
    <path id="path7659" d="M1053.4,378.557a19.992,19.992,0,0,1,2.274-4.592c-1.083-.56-3.96-1.751-3.96-3.7,0-2.278,2.843-4.061,3.431-4.061.263,0,.33.231.33.66,0,1.188-.562,3.1-.562,4.128,0,.925.6,1.818,1.125,1.818.561,0,2.115-1.982,2.115-3.932a4.454,4.454,0,0,0-4.026-4.56c-.894,0-2.513,1.453-6.314,1.453-7.1,0-8.721-7.033-8.721-10.107,0-.132.032-.166.065-.166a5.048,5.048,0,0,0,3.109.86c1.156,0,2.214-.3,3.9-.3,3.958,0,5.711,2.743,8.158,6.242,1.48.925,5.02,2.412,5.02,6.607,0,3.7-3.937,5.749-4.888,9.712,1.514-.163,2.408-2.874,3.96-2.874.794,0,1.158.628,1.158,1.62a7.187,7.187,0,0,1-2.414,4.988,2.149,2.149,0,0,0,.034-.5c0-.925-.363-2.245-1.422-2.245-1.645,0-2.176,1.782-3.1,3.268-.958-3.367-2.249-6.408-4.559-8.258-2.341-1.883-6.376-.86-6.376-4.294,0-.926.6-2.246.6-3.3a1.554,1.554,0,0,0-.265-.958c3.175,1.191,2.05,3.3,4,5.483,1.216,1.388,4.586,2.71,6.539,8.424a6.511,6.511,0,0,0,.065-.891c0-4.89-6.472-9.681-7.034-11.662,3.76.429,4.421,1.355,6.207,6.31C1052.206,374.76,1053.4,377.3,1053.4,378.557Zm-.86-16.022c0-.693-1.754-.758-1.918-2.708-.034-.3-.132-.825-.5-.825-.6,0-.133,1.816-.794,1.816-1.519,0-2.014-2.973-2.577-2.973-.133,0-.29.1-.29.5,0,.363.067.6.067,1.022s-.1.727-.5.727c-.894,0-1.686-2.08-2.448-2.08a.3.3,0,0,0-.331.264c0,.4.661,1.123.661,1.487,0,.793-2.148.363-2.148,1.024,0,.3.3.4.693.4.695,0,1.787-.3,2.348-.3.331,0,.827.066.827.495,0,.462-1.19,1.056-1.19,1.486a.332.332,0,0,0,.363.3c.894,0,2.473-1.55,3.6-1.55.2,0,.692.1.692.4,0,.428-1.121,1.187-1.121,1.815a.334.334,0,0,0,.3.364c.591,0,1.385-1.552,2.51-1.552.431,0,1.059.166,1.39.166C1052.439,362.8,1052.538,362.635,1052.538,362.536Z" transform="translate(-1039.09 -355.5)" fill="#7492be" fill-rule="evenodd"/>
  </g>
  <g id="g7661" transform="translate(60.25)">
    <path id="path7663" d="M832.95,14.995c-.133,0-.165,0-.165-.166,0-.66,1.652-2.972,1.652-3.664s-2.247-.3-2.247-.858c0-.694,2.247-1.421,2.247-2.346s-2.148-1.058-2.148-1.784c0-.4,2.015-.958,2.015-1.554s-2.047-2.906-2.047-3.666c0-.825,3.071,1.453,3.866,1.453.4,0,.4-1.156.4-1.52,0-.561.166-.89.331-.89.4,0,1.191,1.32,1.712,1.287.859,0,2.481-1.09,4.694-1.09,4.657,0,8.03,2.808,8.03,7.6a7.526,7.526,0,0,1-7.764,7.762c-2.81,0-4.5-1.751-5.125-1.751-.423,0-1.05,1.52-1.447,1.52-.166,0-.233-.032-.3-.43-.1-.758-.2-2.049-.73-2.049C835.46,12.847,833.577,14.995,832.95,14.995Zm2.61-6.143c0,.066.065.1.231.1.233,0,.994.034,1.39.034.166,0,.23.132.23.264l.068,1.321c0,.166.065.3.164.3.3,0,.886-1.354,1.249-1.354.3,0,1.323.464,1.588.464a.089.089,0,0,0,.1-.1c0-.3-.695-1.222-.695-1.452,0-.3,1.884-.265,1.884-.6,0-.265-1.852-.628-1.852-.926,0-.265.827-1.155.827-1.386,0-.067-.065-.1-.132-.1-.332,0-1.124.5-1.552.5-.366,0-.763-1.751-.992-1.751-.325,0-.389,1.85-.821,1.85-.5,0-1.125-.133-1.489-.133-.1,0-.166.034-.166.1,0,.4,1.292,1.09,1.292,1.453C836.885,7.662,835.561,8.587,835.561,8.852Zm12.884-1.09c0-3.765-1.952-6.013-5.219-6.013-2.016,0-3.307.825-3.307,1.587,0,.462.4.529.729.529a26.114,26.114,0,0,0,2.545-.628c.231,0,.363.065.363.231,0,.363-.695,1.155-.695,1.619,0,.626,3.631.165,3.631.827,0,.625-2.672,1.221-2.672,1.617,0,.43,2.148,1.851,2.148,2.578,0,.132-.065.265-.294.265-.695,0-2.019-.364-2.911-.364-.2,0-.3.1-.3.231,0,.495.561,1.484.561,2.08,0,.2-.1.264-.23.264-.529,0-2.116-1.121-2.843-1.121a.46.46,0,0,0-.464.495c0,.6,1.521,1.751,3.835,1.751C845.11,13.708,848.444,12.519,848.444,7.762Z" transform="translate(-832.19 0)" fill="#7492be" fill-rule="evenodd"/>
  </g>
  <g id="g7665" transform="translate(38.349 68.389)">
    <path id="path7667" d="M540.389,952.5a1.512,1.512,0,0,1-.364.958,2.431,2.431,0,0,0-1.851-.991c-3.4,0-2.113,4.922-5.748,4.922a17.268,17.268,0,0,1-2.214-.2c-.231,0-.363.1-.363.3,0,.86,1.223,2.973,4.625,2.973s6.674-2.08,6.674-4.66a3.447,3.447,0,0,0-.3-1.351.967.967,0,0,1,.761-.33c.528,0,.825.6,1.321.6a.9.9,0,0,0,.925-.926,1,1,0,0,0-.628-.927,1.136,1.136,0,0,0,.462-.891,1.047,1.047,0,0,0-1.058-1.087.942.942,0,0,0-.726.328c-.066-.593-.4-1.154-1.024-1.154a.852.852,0,0,0-.861.926C540.025,951.51,540.389,951.942,540.389,952.5Z" transform="translate(-529.85 -950.06)" fill="#7492be"/>
  </g>
  <g id="g7669" transform="translate(28.321 61.65)">
    <path id="path7671" d="M391.3,858c0-.926,1.29-1.554,2.445-1.554a4.155,4.155,0,0,1,3.9,2.116c.993,1.485,1.157,3.963,1.684,4.427a1.6,1.6,0,0,0,.993.3c.331,0,.628-.035.858-.035,2.379,0,4,2.676,4,3.865,0,1.092-.956,1.484-2.145,1.484a5.707,5.707,0,0,1-3.867-1.75,7.362,7.362,0,0,1-1.222-3.6c-.264-1.687-1.586-3.107-4.228-3.765C391.6,858.961,391.3,858.566,391.3,858Zm12.288,8.356c0-.859-1.486-1.884-2.312-1.884a.8.8,0,0,0-.825.761c0,.6,1.488,1.653,2.479,1.653C403.422,866.89,403.588,866.592,403.588,866.36Z" transform="translate(-391.3 -856.45)" fill="#7492be" fill-rule="evenodd"/>
  </g>
  <g id="g7673" transform="translate(36.392 38.763)">
    <path id="path7675" d="M513.749,560.44c0-1.486-3.074-1.518-3.074-3.765a5.161,5.161,0,0,1,1.092-2.545,3.583,3.583,0,0,0,2.478,3.173c2.939,1.089,3.336,2.741,3.336,4.493,0,2.974-2.082,6.673-7.433,6.673a7.522,7.522,0,0,1-7.369-7.069c0-.893.231-1.884.793-1.884.5,0,.662.4,1.056.792,1.488,1.488,3.106,1.883,5.453,1.883C512.2,562.192,513.749,561.334,513.749,560.44Zm.132,2.379c-1.133.519-1.586.43-1.586,1.588,0,.428-.1.988-.1,1.286,0,.4.066.628.527.628,1.191,0,3.074-2.015,3.074-3.733,0-.464-.265-.659-.563-.659C514.969,561.93,514.675,562.457,513.881,562.819Zm-10.539-16.68c0-2.116,5.022-3.238,5.022-5.848a4.319,4.319,0,0,0-.462-1.751c1.751.958,3.039,2.579,3.039,3.9,0,2.28-2.378,3.336-2.378,4.758,0,1.651,2.543,1.915,2.543,3.964,0,1.682-2.413,3.632-2.413,5.812a3.3,3.3,0,0,0,3.007,3.3,7.578,7.578,0,0,1-1.684.233c-3.338,0-6.773-2.741-6.773-6.013a5.636,5.636,0,0,1,1.751-4.062,4.722,4.722,0,0,0,2.445,1.321c.529,0,.761-.263.761-.66C508.2,549.87,503.342,548.749,503.342,546.139Z" transform="translate(-502.78 -538.54)" fill="#7492be" fill-rule="evenodd"/>
  </g>
  <g id="g7677" transform="translate(17.675 57.14)">
    <path id="path7679" d="M246.121,796.922l.327-.049a2.238,2.238,0,0,1,1.628-3.059,2.224,2.224,0,0,1,2.5,1.64,2.076,2.076,0,0,1,1.093-.449,2.149,2.149,0,0,1,2.311,1.935,2.2,2.2,0,0,1-1.9,2.339c-.121.024-.283.04-.283.04a2.375,2.375,0,0,1,.2.76,2.1,2.1,0,0,1-1.913,2.34,2.034,2.034,0,0,1-2.35-1.579,2.74,2.74,0,0,1-1.092.331,2.155,2.155,0,0,1-2.379-1.852A2.224,2.224,0,0,1,246.121,796.922Zm2.927-.007a1.258,1.258,0,1,0,1.393,1.1A1.255,1.255,0,0,0,249.048,796.915Z" transform="translate(-244.251 -793.782)" fill="#7492be" fill-rule="evenodd"/>
  </g>
</svg>
