<svg xmlns="http://www.w3.org/2000/svg" width="36" height="40" viewBox="0 0 36 40">
  <path id="Path_81" data-name="Path 81" d="M27.624,23.241l4.72-2.7V14.723L15.96,5.34,11.234,8.048l15.921,9.114a.8.8,0,0,1,.47.729Zm5.882-1.522L27.27,25.29a.813.813,0,0,1-.831.044.8.8,0,0,1-.429-.707V19.274L22.2,21.459v17.8a2.838,2.838,0,0,0,.427-.2l6.96-3.985v0l6.96-3.985a2.362,2.362,0,0,0,1.233-2.118V13.029a2.947,2.947,0,0,0-.04-.469l-3.774,2.164V21a.8.8,0,0,1-.455.72Zm-8.3-3.828L9.626,8.968,6.233,10.911l-.387.269,2.5,1.431-.8,1.383-2.5-1.431a2.573,2.573,0,0,0-.04.466V28.973A2.438,2.438,0,0,0,5.318,30.2h0a2.444,2.444,0,0,0,.912.89h0l13.922,7.973a2.586,2.586,0,0,0,.427.2v-17.8L7.431,13.946l.8-1.383,13.155,7.516ZM17.568,4.42l15.585,8.924,3.78-2.164-.387-.272,0,0L22.621,2.937a2.43,2.43,0,0,0-2.465,0h0ZM39.39,21v7.973a3.977,3.977,0,0,1-2.038,3.5l-6.963,3.985h0l-6.966,3.985a4,4,0,0,1-4.07,0L5.428,32.474v0A4.032,4.032,0,0,1,3.927,31h0a4,4,0,0,1-.537-2.027V13.029A3.989,3.989,0,0,1,3.927,11h0a4.085,4.085,0,0,1,1.5-1.474L19.35,1.555v0a4.013,4.013,0,0,1,4.076,0L37.351,9.528v0a3.965,3.965,0,0,1,2.038,3.5Z" transform="translate(-3.39 -1)" fill="#0055d0"/>
</svg>
