<svg xmlns="http://www.w3.org/2000/svg" width="39.999" height="40" viewBox="0 0 39.999 40">
  <path id="Path_80" data-name="Path 80" d="M14387.877-6471.31a8.756,8.756,0,0,1-4.636-2.322c-2.6-2.606-2.744-6.917-1.42-8.2a2.874,2.874,0,0,1,1.182-.635,58.964,58.964,0,0,0,12.2-8.932,16.319,16.319,0,0,1-4.678-1.047c-2.13-.948-3.406-2.463-3.359-3.981a2.627,2.627,0,0,1,1.94-2.369c2.506-.948,5.205.236,7.238,1.61-.9-2.368-1.7-5.354-1.089-7.2a2.8,2.8,0,0,1,1.561-1.705,3.047,3.047,0,0,1,2.651.046c1.656.853,2.319,2.987,2.509,3.886a10.863,10.863,0,0,1,.039,3.564,86.931,86.931,0,0,0,8.666-12.142.992.992,0,0,1,.994-.473c9.037,1.7,9.32,9.382,9.32,9.477a.933.933,0,0,1-.426.8,116.331,116.331,0,0,0-14.768,11.711l-2.74,2.743a1.015,1.015,0,0,1-.248.183,73.144,73.144,0,0,0-10.413,13.037,3.111,3.111,0,0,1-.692,1.278,3.616,3.616,0,0,1-2.51.759A13.169,13.169,0,0,1,14387.877-6471.31Zm-3.357-3.6a6.436,6.436,0,0,0,5.717,1.718c.076-.146.2-.372.367-.67a6.514,6.514,0,0,0,.167-2.005,3.489,3.489,0,0,1-2.419,1,1.318,1.318,0,0,1-.426-.047,5.239,5.239,0,0,1-3.833-3.318.958.958,0,0,1,.661-1.137.955.955,0,0,1,1.136.664,3.426,3.426,0,0,0,2.272,1.942c.713.084,1.39-.353,2.029-1.347a4.374,4.374,0,0,0-.847-1.165,6.1,6.1,0,0,0-4.353-1.61,5.64,5.64,0,0,0-1.3.138c-.22.116-.439.231-.662.344A5.809,5.809,0,0,0,14384.52-6474.91Zm6.2-5.733a7.009,7.009,0,0,1,1.848,3.683,79.492,79.492,0,0,1,8.475-10.214l-3.67-3.678a65.157,65.157,0,0,1-10.493,8.274A7.4,7.4,0,0,1,14390.717-6480.644Zm11.617-7.842c.571-.566,1.162-1.141,1.779-1.725l-3.7-3.7-.517.519q-.6.625-1.218,1.25Zm3.178-3.025a120.92,120.92,0,0,1,13.548-10.646c-.191-1.469-1.277-5.686-7.1-7.06a91.239,91.239,0,0,1-10.27,13.883Zm-15.788-5.529c-.331.143-.711.332-.757.71,0,.569.757,1.563,2.271,2.228a17.761,17.761,0,0,0,5.688.985l.628-.63c-1.482-1.406-4.207-3.511-6.592-3.511A3.454,3.454,0,0,0,14389.724-6497.04Zm7.808-7.25a.889.889,0,0,0-.522.617c-.614,1.684.8,5.61,2.109,8.354.167-.179.331-.358.5-.537.358-1.316.956-4.188.566-5.875a4.089,4.089,0,0,0-1.561-2.606.96.96,0,0,0-.441-.1A1.691,1.691,0,0,0,14397.531-6504.29Z" transform="translate(-14381 6511.215)" fill="#0055d0"/>
</svg>
