<svg xmlns="http://www.w3.org/2000/svg" width="35" height="40" viewBox="0 0 35 40">
  <path id="Path_79" data-name="Path 79" d="M36.2,34.917h-.4a17.335,17.335,0,0,0-.39-20.654l1.563-1.557a1.088,1.088,0,0,0,0-1.543L35.16,9.356l1.815-1.808a1.088,1.088,0,0,0,0-1.543L33.522,2.566a1.13,1.13,0,0,0-1.55,0L30.157,4.374l-.089-.088a1.1,1.1,0,0,0-1.55,0L14.7,18.041a1.088,1.088,0,0,0,0,1.543l.088.088-1.816,1.808a1.088,1.088,0,0,0,0,1.543l3.454,3.439a1.1,1.1,0,0,0,1.55,0L19.8,24.655l1.815,1.808a1.1,1.1,0,0,0,1.55,0l5.2-5.181a5.424,5.424,0,0,0,1.793.342,5.368,5.368,0,0,0,.932-.089,9.924,9.924,0,0,1,.562,3.3,10.129,10.129,0,0,1-15.016,8.829h2.3a1.094,1.094,0,0,0,1.1-1.091V29.13a1.094,1.094,0,0,0-1.1-1.091H5.119a1.094,1.094,0,0,0-1.1,1.091v3.439a1.094,1.094,0,0,0,1.1,1.091H6.443a17.775,17.775,0,0,0,4.487,5.048v2.459a1.094,1.094,0,0,0,1.1,1.091H36.2a1.094,1.094,0,0,0,1.1-1.091V36.009a1.094,1.094,0,0,0-1.1-1.091ZM32.747,4.881l1.9,1.9-1.04,1.036-.766-.762L31.707,5.917l1.04-1.036ZM17.206,24.149l-1.9-1.9,1.041-1.036,1.9,1.9-1.041,1.036Zm5.18,0-1.814-1.807h0L17.117,18.9h0l-.088-.088L29.294,6.6l.087.087v0l2.065,2.056,3.2,3.19-.579.576c-.019-.02-.042-.036-.062-.056s-.068-.059-.1-.091a5.7,5.7,0,0,0-1.137-.862.993.993,0,0,0-.142-.066,4.442,4.442,0,0,0-1.395-.465,3.885,3.885,0,0,0-1.079-.128,5.354,5.354,0,0,0-5.018,3.39,5.174,5.174,0,0,0-.395,2,4.936,4.936,0,0,0,.088.991,5.374,5.374,0,0,0,.312,1.022c.037.091.078.179.12.267a5.366,5.366,0,0,0,.426.747c.04.059.074.122.117.18a5.414,5.414,0,0,0,.607.7l-4.028,4.011Zm6.238-5.09c-.015-.008-.032-.015-.047-.022a3.289,3.289,0,0,1-.34-.239c-.079-.059-.164-.111-.237-.176a3.228,3.228,0,0,1-.289-.318c-.058-.069-.125-.13-.177-.2a3.235,3.235,0,0,1-.23-.4c-.036-.07-.083-.133-.114-.206a3.269,3.269,0,0,1-.207-.68,2.876,2.876,0,0,1-.048-.575,3.049,3.049,0,0,1,.235-1.185,3.225,3.225,0,0,1,2.986-2.023,2.342,2.342,0,0,1,.616.074,2.741,2.741,0,0,1,.912.308.935.935,0,0,0,.089.043,3.514,3.514,0,0,1,.675.535c.068.069.119.155.181.23a3.532,3.532,0,0,1,.344.457c.006.011.011.023.017.034a3.2,3.2,0,0,1-1.665,4.507,3.239,3.239,0,0,1-2.7-.156ZM6.215,30.221H17.837v1.257H6.215V30.221ZM35.1,40.076H13.122V38.158a1.091,1.091,0,0,0-.459-.888,15.533,15.533,0,0,1-3.628-3.609H12.97a12.33,12.33,0,0,0,20.873-8.829,12.1,12.1,0,0,0-.708-4.1c.065-.043.12-.1.183-.143.127-.092.251-.186.369-.288.093-.081.182-.165.269-.251.111-.11.216-.223.317-.341.079-.093.155-.187.228-.286.093-.126.179-.256.261-.39.063-.1.125-.2.181-.312.075-.142.138-.287.2-.435.031-.074.073-.142.1-.218a15.2,15.2,0,0,1-2.551,17.2,1.091,1.091,0,0,0,.8,1.839H35.1v2.976Z" transform="translate(-4.023 -2.258)" fill="#0055d0"/>
</svg>
