<svg xmlns="http://www.w3.org/2000/svg" width="24.502" height="40.5" viewBox="0 0 24.502 40.5">
  <path id="Path_78" data-name="Path 78" d="M150.589,38.742H135.005a.706.706,0,0,0-.371.105l-3.141,1.945a1.869,1.869,0,0,0-.863,1.956,1.89,1.89,0,0,0,1.533,1.5l1.042.19v2.091a1.865,1.865,0,0,0-.419,1.177v2.152A38.33,38.33,0,0,0,127.455,73.2l.186,1.982a3.9,3.9,0,0,0,3.913,3.53l12.453.027h.009a3.918,3.918,0,0,0,3.938-3.889V62.2a4.514,4.514,0,0,0-3.211-4.318,3.132,3.132,0,0,1-2.166-3.635l.847-4.061a.689.689,0,0,0,.012-.076c0-.008,0-.016,0-.024s0-.028,0-.042V47.709a1.862,1.862,0,0,0-.381-1.127l.045-2.062.531-.11,2.78,8.166a1.753,1.753,0,0,0,.988,1.051,1.787,1.787,0,0,0,1.452-.036,1.744,1.744,0,0,0,.881-2.2l-2.976-7.63.229-.047h3.6a.7.7,0,0,0,.7-.69v-3.6A.7.7,0,0,0,150.589,38.742Zm-8.548,8.967v1.649h-7.856V47.709a.513.513,0,0,1,.515-.509h6.825A.513.513,0,0,1,142.04,47.709ZM144.324,59.2a3.136,3.136,0,0,1,2.231,3v12.65a2.527,2.527,0,0,1-2.54,2.508v.69l-.006-.69-12.453-.027a2.517,2.517,0,0,1-2.524-2.277l-.186-1.982a36.726,36.726,0,0,1,5.036-22.337h8l-.674,3.234A4.507,4.507,0,0,0,144.324,59.2Zm-2.051-15.922a.693.693,0,0,0-.556.661l-.041,1.885c-.05,0-.1-.008-.151-.008H134.7c-.033,0-.064,0-.1,0V43.867a.693.693,0,0,0-.572-.679l-1.615-.294a.5.5,0,0,1-.413-.4.5.5,0,0,1,.232-.527l2.971-1.839h11.076v2.33l-.554.114a.705.705,0,0,0-.124.026l-1.583.327a.7.7,0,0,0-.13.027Zm6.157,8.61a.362.362,0,0,1-.183.456.367.367,0,0,1-.3.008.361.361,0,0,1-.205-.218l-2.727-8.011.359-.074Zm1.46-9.554h-2.208V40.123h2.208Z" transform="translate(-127.036 -38.492)" fill="#0055d0" stroke="#0055d0" stroke-linecap="square" stroke-linejoin="bevel" stroke-width="0.5"/>
</svg>
