<svg xmlns="http://www.w3.org/2000/svg" width="57" height="57" viewBox="0 0 57 57">
  <g id="Group_1316" data-name="Group 1316" transform="translate(-665 -2917)">
    <circle id="Ellipse_34" data-name="Ellipse 34" cx="28.5" cy="28.5" r="28.5" transform="translate(665 2917)" fill="#0055d0"/>
    <path id="Path_77" data-name="Path 77" d="M24.885,32.729a7.523,7.523,0,0,0,4.929-1.838l3.62,3.483a.522.522,0,0,0,.358.146.512.512,0,0,0,.374-.162.524.524,0,0,0-.016-.738l-3.6-3.463a7.561,7.561,0,1,0-5.666,2.571Zm0-14.166a6.56,6.56,0,1,1-6.534,6.56A6.554,6.554,0,0,1,24.885,18.563Z" transform="translate(667.69 2919.48)" fill="#fff"/>
  </g>
</svg>
